<?xml version="1.0" standalone="no"?>
  <!DOCTYPE svg PUBLIC "-//W3C//DTD SVG 1.1//EN" "http://www.w3.org/Graphics/SVG/1.1/DTD/svg11.dtd" >
  <svg>
  <metadata>
  Created by font-carrier
  </metadata>
  <defs>
  <font id="Inkulinati210706-Regular" horiz-adv-x="1000" vert-adv-y="1000" >
    <font-face
      
      font-family="Inkulinati 210706"
      
      font-weight="400"
      
      font-stretch="normal"
      
      units-per-em="1000"
      
      ascent="1046"
      
      descent="-154"
      
    />
      <missing-glyph />

      

      
      <glyph glyph-name="uni41" unicode="&#x41;" d="M240-13C273 19 304 54 332 93C280 101 229 111 181 122C209 170 238 228 265 293C325 282 385 271 438 258C454 275 469 296 484 318C482 243 479 166 474 116C447 96 421 74 396 51C444 29 508 5 574-14C617 15 657 46 696 82C645 97 595 115 552 132C572 145 592 157 610 171C615 246 616 325 616 419C616 544 610 660 601 760C507 799 377 834 244 855C201 826 161 794 122 759C200 746 276 730 345 710C323 699 303 686 282 672C272 592 252 498 226 403C190 408 156 413 124 416C98 388 74 355 52 320C97 316 146 310 196 303C178 245 157 187 136 133L96 144C63 112 32 77 4 38C72 18 156 0 240-13ZM302 390C339 492 370 601 388 697C406 692 423 686 439 680C465 669 469 664 472 636C480 546 484 457 484 367L484 349C428 364 365 378 302 390Z"  horiz-adv-x="696" vert-adv-y="1000"  />

      
      <glyph glyph-name="unic1" unicode="&#xc1;" d="M240-13C273 19 304 54 332 93C280 101 229 111 181 122C209 170 238 228 265 293C325 282 385 271 438 258C454 275 469 296 484 318C482 243 479 166 474 116C447 96 421 74 396 51C444 29 508 5 574-14C617 15 657 46 696 82C645 97 595 115 552 132C572 145 592 157 610 171C615 246 616 325 616 419C616 544 610 660 601 760C507 799 377 834 244 855C201 826 161 794 122 759C200 746 276 730 345 710C323 699 303 686 282 672C272 592 252 498 226 403C190 408 156 413 124 416C98 388 74 355 52 320C97 316 146 310 196 303C178 245 157 187 136 133L96 144C63 112 32 77 4 38C72 18 156 0 240-13ZM302 390C339 492 370 601 388 697C406 692 423 686 439 680C465 669 469 664 472 636C480 546 484 457 484 367L484 349C428 364 365 378 302 390ZM380 892C396 883 416 876 434 872L604 1021C570 1037 518 1055 485 1062Z"  horiz-adv-x="696" vert-adv-y="1000"  />

      
      <glyph glyph-name="unic2" unicode="&#xc2;" d="M240-13C273 19 304 54 332 93C280 101 229 111 181 122C209 170 238 228 265 293C325 282 385 271 438 258C454 275 469 296 484 318C482 243 479 166 474 116C447 96 421 74 396 51C444 29 508 5 574-14C617 15 657 46 696 82C645 97 595 115 552 132C572 145 592 157 610 171C615 246 616 325 616 419C616 544 610 660 601 760C507 799 377 834 244 855C201 826 161 794 122 759C200 746 276 730 345 710C323 699 303 686 282 672C272 592 252 498 226 403C190 408 156 413 124 416C98 388 74 355 52 320C97 316 146 310 196 303C178 245 157 187 136 133L96 144C63 112 32 77 4 38C72 18 156 0 240-13ZM300 892C315 883 333 876 349 872L452 978L555 872C571 876 589 883 604 892L501 1058C470 1062 434 1062 403 1058ZM302 390C339 492 370 601 388 697C406 692 423 686 439 680C465 669 469 664 472 636C480 546 484 457 484 367L484 349C428 364 365 378 302 390Z"  horiz-adv-x="696" vert-adv-y="1000"  />

      
      <glyph glyph-name="unic4" unicode="&#xc4;" d="M240-13C273 19 304 54 332 93C280 101 229 111 181 122C209 170 238 228 265 293C325 282 385 271 438 258C454 275 469 296 484 318C482 243 479 166 474 116C447 96 421 74 396 51C444 29 508 5 574-14C617 15 657 46 696 82C645 97 595 115 552 132C572 145 592 157 610 171C615 246 616 325 616 419C616 544 610 660 601 760C507 799 377 834 244 855C201 826 161 794 122 759C200 746 276 730 345 710C323 699 303 686 282 672C272 592 252 498 226 403C190 408 156 413 124 416C98 388 74 355 52 320C97 316 146 310 196 303C178 245 157 187 136 133L96 144C63 112 32 77 4 38C72 18 156 0 240-13ZM302 390C339 492 370 601 388 697C406 692 423 686 439 680C465 669 469 664 472 636C480 546 484 457 484 367L484 349C428 364 365 378 302 390ZM345 902C364 893 388 886 409 882L479 1021C451 1033 407 1047 380 1052ZM495 902C514 893 538 886 559 882L629 1021C601 1033 557 1047 530 1052Z"  horiz-adv-x="696" vert-adv-y="1000"  />

      
      <glyph glyph-name="unic0" unicode="&#xc0;" d="M240-13C273 19 304 54 332 93C280 101 229 111 181 122C209 170 238 228 265 293C325 282 385 271 438 258C454 275 469 296 484 318C482 243 479 166 474 116C447 96 421 74 396 51C444 29 508 5 574-14C617 15 657 46 696 82C645 97 595 115 552 132C572 145 592 157 610 171C615 246 616 325 616 419C616 544 610 660 601 760C507 799 377 834 244 855C201 826 161 794 122 759C200 746 276 730 345 710C323 699 303 686 282 672C272 592 252 498 226 403C190 408 156 413 124 416C98 388 74 355 52 320C97 316 146 310 196 303C178 245 157 187 136 133L96 144C63 112 32 77 4 38C72 18 156 0 240-13ZM300 1021L470 872C488 876 508 883 524 892L419 1062C386 1055 334 1037 300 1021ZM302 390C339 492 370 601 388 697C406 692 423 686 439 680C465 669 469 664 472 636C480 546 484 457 484 367L484 349C428 364 365 378 302 390Z"  horiz-adv-x="696" vert-adv-y="1000"  />

      
      <glyph glyph-name="uni0104" unicode="&#x0104;" d="M240-13C273 19 304 54 332 93C280 101 229 111 181 122C209 170 238 228 265 293C325 282 385 271 438 258C454 275 469 296 484 318C482 243 479 166 474 116C447 96 421 74 396 51C433 34 480 16 531-1C499-43 470-84 449-121C499-143 567-155 628-157C647-130 670-90 685-57C643-55 595-49 558-40L574-14C617 15 657 46 696 82C645 97 595 115 552 132C572 145 592 157 610 171C615 246 616 325 616 419C616 544 610 660 601 760C507 799 377 834 244 855C201 826 161 794 122 759C200 746 276 730 345 710C323 699 303 686 282 672C272 592 252 498 226 403C190 408 156 413 124 416C98 388 74 355 52 320C97 316 146 310 196 303C178 245 157 187 136 133L96 144C63 112 32 77 4 38C72 18 156 0 240-13ZM302 390C339 492 370 601 388 697C406 692 423 686 439 680C465 669 469 664 472 636C480 546 484 457 484 367L484 349C428 364 365 378 302 390Z"  horiz-adv-x="696" vert-adv-y="1000"  />

      
      <glyph glyph-name="unic3" unicode="&#xc3;" d="M240-13C273 19 304 54 332 93C280 101 229 111 181 122C209 170 238 228 265 293C325 282 385 271 438 258C454 275 469 296 484 318C482 243 479 166 474 116C447 96 421 74 396 51C444 29 508 5 574-14C617 15 657 46 696 82C645 97 595 115 552 132C572 145 592 157 610 171C615 246 616 325 616 419C616 544 610 660 601 760C507 799 377 834 244 855C201 826 161 794 122 759C200 746 276 730 345 710C323 699 303 686 282 672C272 592 252 498 226 403C190 408 156 413 124 416C98 388 74 355 52 320C97 316 146 310 196 303C178 245 157 187 136 133L96 144C63 112 32 77 4 38C72 18 156 0 240-13ZM280 914C291 906 308 897 321 892C338 905 357 917 376 926C414 917 455 902 497 882C542 912 589 951 623 988C612 996 595 1005 582 1010C565 997 546 985 527 976C488 985 448 1000 406 1020C361 990 314 951 280 914ZM302 390C339 492 370 601 388 697C406 692 423 686 439 680C465 669 469 664 472 636C480 546 484 457 484 367L484 349C428 364 365 378 302 390Z"  horiz-adv-x="696" vert-adv-y="1000"  />

      
      <glyph glyph-name="unic6" unicode="&#xc6;" d="M240-13C273 19 304 54 332 93C280 101 229 111 181 122C209 170 238 228 265 293C325 282 385 271 438 258C452 273 466 291 479 311C477 252 473 198 469 164C443 145 418 124 393 101C506 55 656 13 811-14C854 15 894 46 933 82C785 110 642 149 531 191C558 207 583 223 607 241C610 288 612 337 613 390C684 389 769 384 835 378C861 409 885 447 907 489C833 497 736 501 661 501C644 480 628 457 613 432L613 469C613 569 609 662 602 745C666 725 736 708 803 695C846 724 886 755 925 791C843 808 756 831 681 855C642 834 597 807 554 778C466 810 356 837 244 855C201 826 161 794 122 759C199 746 275 730 344 710C323 699 302 686 282 672C272 592 252 498 226 403C190 408 156 413 124 416C98 388 74 355 52 320C97 316 146 310 196 303C178 245 157 187 136 133L96 144C63 112 32 77 4 38C72 18 156 0 240-13ZM302 390C339 492 370 601 388 697C406 691 423 685 440 679C466 669 470 664 473 636C478 563 481 490 481 417C481 395 481 372 480 350C425 365 364 378 302 390Z"  horiz-adv-x="937" vert-adv-y="1000"  />

      
      <glyph glyph-name="uni42" unicode="&#x42;" d="M365-14C402 6 436 30 467 57C574 150 626 280 596 429C558 452 507 475 455 493C562 585 590 692 561 790C507 814 435 837 358 854C324 831 293 807 262 781C227 806 180 832 130 854C87 825 47 793 8 758C50 742 91 723 121 704C128 514 128 324 122 134C96 115 71 94 46 71C131 32 247 1 365-14ZM204 153C224 165 244 178 263 192C256 379 256 565 262 752C312 739 360 724 399 710C425 699 430 694 435 667C445 603 438 532 412 495C374 471 338 446 303 417C351 402 398 382 436 363C461 349 465 343 469 315C478 243 472 155 437 90C352 106 271 128 204 153Z"  horiz-adv-x="638" vert-adv-y="1000"  />

      
      <glyph glyph-name="uni43" unicode="&#x43;" d="M273 855C205 823 143 789 86 746C57 646 43 500 43 333C43 248 48 162 58 83C137 42 244 5 355-17C398 12 438 44 477 79C383 100 291 130 219 162C194 173 190 179 186 207C179 273 175 342 175 412C175 528 183 644 196 744C259 724 326 708 391 695C434 724 474 755 513 791C432 808 347 831 273 855Z"  horiz-adv-x="487" vert-adv-y="1000"  />

      
      <glyph glyph-name="uni0106" unicode="&#x0106;" d="M273 855C205 823 143 789 86 746C57 646 43 500 43 333C43 248 48 162 58 83C137 42 244 5 355-17C398 12 438 44 477 79C383 100 291 130 219 162C194 173 190 179 186 207C179 273 175 342 175 412C175 528 183 644 196 744C259 724 326 708 391 695C434 724 474 755 513 791C432 808 347 831 273 855ZM247 892C263 883 283 876 301 872L471 1021C437 1037 385 1055 352 1062Z"  horiz-adv-x="487" vert-adv-y="1000"  />

      
      <glyph glyph-name="unic7" unicode="&#xc7;" d="M273 855C205 823 143 789 86 746C57 646 43 500 43 333C43 248 48 162 58 83C109 57 172 32 239 12C202-19 168-51 144-79C192-101 244-128 283-154C307-132 336-100 355-74C324-56 290-38 261-25L279 1C304-6 329-12 355-17C398 12 438 44 477 79C383 100 291 130 219 162C194 173 190 179 186 207C179 273 175 342 175 412C175 528 183 644 196 744C259 724 326 708 391 695C434 724 474 755 513 791C432 808 347 831 273 855Z"  horiz-adv-x="487" vert-adv-y="1000"  />

      
      <glyph glyph-name="uni44" unicode="&#x44;" d="M355-14C392 6 426 30 457 57C621 200 662 457 581 725C460 778 294 826 124 855C81 826 41 794 2 759C74 746 145 730 213 713C181 694 151 675 121 654C128 481 128 307 122 134C96 115 71 94 46 71C129 32 240 1 355-14ZM203 153C224 165 244 178 263 192C257 360 256 530 262 699C319 682 372 664 419 645C445 635 450 629 460 603C512 443 501 233 426 91C345 106 268 128 203 153Z"  horiz-adv-x="664" vert-adv-y="1000"  />

      
      <glyph glyph-name="uni45" unicode="&#x45;" d="M424-14C467 15 507 46 546 82C398 110 255 149 144 191C171 207 196 223 220 241C223 288 225 337 226 390C297 389 382 384 448 378C474 409 498 447 520 489C446 497 349 501 274 501C257 480 241 457 226 432L226 469C226 569 222 662 215 745C279 725 349 708 416 695C459 724 499 755 538 791C456 808 369 831 294 855C226 818 140 763 79 713C89 614 94 516 94 417C94 324 89 218 82 164C56 145 31 124 6 101C119 55 269 13 424-14Z"  horiz-adv-x="550" vert-adv-y="1000"  />

      
      <glyph glyph-name="unic9" unicode="&#xc9;" d="M424-14C467 15 507 46 546 82C398 110 255 149 144 191C171 207 196 223 220 241C223 288 225 337 226 390C297 389 382 384 448 378C474 409 498 447 520 489C446 497 349 501 274 501C257 480 241 457 226 432L226 469C226 569 222 662 215 745C279 725 349 708 416 695C459 724 499 755 538 791C456 808 369 831 294 855C226 818 140 763 79 713C89 614 94 516 94 417C94 324 89 218 82 164C56 145 31 124 6 101C119 55 269 13 424-14ZM227 892C243 883 263 876 281 872L451 1021C417 1037 365 1055 332 1062Z"  horiz-adv-x="550" vert-adv-y="1000"  />

      
      <glyph glyph-name="unica" unicode="&#xca;" d="M424-14C467 15 507 46 546 82C398 110 255 149 144 191C171 207 196 223 220 241C223 288 225 337 226 390C297 389 382 384 448 378C474 409 498 447 520 489C446 497 349 501 274 501C257 480 241 457 226 432L226 469C226 569 222 662 215 745C279 725 349 708 416 695C459 724 499 755 538 791C456 808 369 831 294 855C226 818 140 763 79 713C89 614 94 516 94 417C94 324 89 218 82 164C56 145 31 124 6 101C119 55 269 13 424-14ZM147 892C162 883 180 876 196 872L299 978L402 872C418 876 436 883 451 892L348 1058C317 1062 281 1062 250 1058Z"  horiz-adv-x="550" vert-adv-y="1000"  />

      
      <glyph glyph-name="unicb" unicode="&#xcb;" d="M424-14C467 15 507 46 546 82C398 110 255 149 144 191C171 207 196 223 220 241C223 288 225 337 226 390C297 389 382 384 448 378C474 409 498 447 520 489C446 497 349 501 274 501C257 480 241 457 226 432L226 469C226 569 222 662 215 745C279 725 349 708 416 695C459 724 499 755 538 791C456 808 369 831 294 855C226 818 140 763 79 713C89 614 94 516 94 417C94 324 89 218 82 164C56 145 31 124 6 101C119 55 269 13 424-14ZM192 902C211 893 235 886 256 882L326 1021C298 1033 254 1047 227 1052ZM342 902C361 893 385 886 406 882L476 1021C448 1033 404 1047 377 1052Z"  horiz-adv-x="550" vert-adv-y="1000"  />

      
      <glyph glyph-name="unic8" unicode="&#xc8;" d="M424-14C467 15 507 46 546 82C398 110 255 149 144 191C171 207 196 223 220 241C223 288 225 337 226 390C297 389 382 384 448 378C474 409 498 447 520 489C446 497 349 501 274 501C257 480 241 457 226 432L226 469C226 569 222 662 215 745C279 725 349 708 416 695C459 724 499 755 538 791C456 808 369 831 294 855C226 818 140 763 79 713C89 614 94 516 94 417C94 324 89 218 82 164C56 145 31 124 6 101C119 55 269 13 424-14ZM147 1021L317 872C335 876 355 883 371 892L266 1062C233 1055 181 1037 147 1021Z"  horiz-adv-x="550" vert-adv-y="1000"  />

      
      <glyph glyph-name="uni0118" unicode="&#x0118;" d="M448 378C474 409 498 447 520 489C446 497 349 501 274 501C257 480 241 457 226 432L226 469C226 569 222 662 215 745C279 725 349 708 416 695C459 724 499 755 538 791C456 808 369 831 294 855C226 818 140 763 79 713C89 614 94 516 94 417C94 324 89 218 82 164C56 145 31 124 6 101C108 60 239 22 377-5C347-46 319-86 299-121C349-143 417-155 478-157C497-130 520-90 535-57C493-55 445-49 408-40L424-14C467 15 507 46 546 82C398 110 255 149 144 191C171 207 196 223 220 241C223 288 225 337 226 390C297 389 382 384 448 378Z"  horiz-adv-x="550" vert-adv-y="1000"  />

      
      <glyph glyph-name="uni46" unicode="&#x46;" d="M366 57C360 170 341 287 312 404C356 402 399 400 438 398C464 428 488 464 510 504C441 508 361 511 281 513C257 593 227 671 194 745C258 719 329 698 396 685C439 714 479 745 518 781C436 800 349 826 274 855C206 820 117 762 57 708C86 647 112 582 135 516L64 516C38 485 14 449-8 410C46 410 107 409 169 408C206 278 230 144 239 17C184 30 133 49 93 70C50 41 10 10-29-26C23-55 92-79 164-90C237-47 305 2 366 57Z"  horiz-adv-x="519" vert-adv-y="1000"  />

      
      <glyph glyph-name="uni47" unicode="&#x47;" d="M283 855C215 823 153 789 96 746C67 646 53 500 53 333C53 244 58 153 68 70C141 34 242 2 345-17C376 4 405 26 433 49C430-19 426-78 421-123C462-101 521-60 562-25C567 79 568 181 568 286C568 325 567 373 566 414C586 429 605 445 624 463C545 487 453 508 362 522C319 493 279 462 240 426C295 418 351 407 404 394C431 387 435 382 436 354C436 323 437 283 437 249C437 191 436 136 434 86C360 103 288 125 229 149C204 160 200 166 196 194C189 264 185 338 185 412C185 528 193 644 206 744C284 721 369 701 451 685C494 714 534 745 573 781C475 801 372 827 283 855Z"  horiz-adv-x="642" vert-adv-y="1000"  />

      
      <glyph glyph-name="uni48" unicode="&#x48;" d="M204-14C247 15 287 46 326 82C268 97 211 115 164 133C184 145 204 158 223 172C220 272 218 372 218 472C275 459 333 444 387 426C413 416 417 411 418 383C419 349 420 306 420 269C420 104 413-34 404-123C442-101 499-60 537-25C549 86 551 194 551 306C551 348 550 401 548 446C565 459 581 473 597 488C509 526 405 556 304 575C274 555 246 534 218 510C218 588 219 665 222 741C293 717 372 698 446 685C489 714 529 745 568 781C476 797 378 823 294 855C227 819 141 763 81 714C88 514 88 314 82 114C56 95 31 74 6 51C59 29 131 5 204-14Z"  horiz-adv-x="625" vert-adv-y="1000"  />

      
      <glyph glyph-name="uni49" unicode="&#x49;" d="M124 855C81 826 41 795 2 759C65 741 130 720 187 697C164 684 142 669 121 654C128 474 128 291 122 111C96 92 71 71 46 48C94 26 158 2 224-17C267 12 307 43 346 79C295 94 245 112 202 129C223 142 243 155 263 169C256 352 256 537 262 718C288 737 313 758 338 781C274 809 198 834 124 855Z"  horiz-adv-x="335" vert-adv-y="1000"  />

      
      <glyph glyph-name="unicd" unicode="&#xcd;" d="M124 855C81 826 41 795 2 759C65 741 130 720 187 697C164 684 142 669 121 654C128 474 128 291 122 111C96 92 71 71 46 48C94 26 158 2 224-17C267 12 307 43 346 79C295 94 245 112 202 129C223 142 243 155 263 169C256 352 256 537 262 718C288 737 313 758 338 781C274 809 198 834 124 855ZM146 892C162 883 182 876 200 872L370 1021C336 1037 284 1055 251 1062Z"  horiz-adv-x="335" vert-adv-y="1000"  />

      
      <glyph glyph-name="unice" unicode="&#xce;" d="M124 855C81 826 41 795 2 759C65 741 130 720 187 697C164 684 142 669 121 654C128 474 128 291 122 111C96 92 71 71 46 48C94 26 158 2 224-17C267 12 307 43 346 79C295 94 245 112 202 129C223 142 243 155 263 169C256 352 256 537 262 718C288 737 313 758 338 781C274 809 198 834 124 855ZM66 892C81 883 99 876 115 872L218 978L321 872C337 876 355 883 370 892L267 1058C236 1062 200 1062 169 1058Z"  horiz-adv-x="335" vert-adv-y="1000"  />

      
      <glyph glyph-name="unicf" unicode="&#xcf;" d="M124 855C81 826 41 795 2 759C65 741 130 720 187 697C164 684 142 669 121 654C128 474 128 291 122 111C96 92 71 71 46 48C94 26 158 2 224-17C267 12 307 43 346 79C295 94 245 112 202 129C223 142 243 155 263 169C256 352 256 537 262 718C288 737 313 758 338 781C274 809 198 834 124 855ZM111 902C130 893 154 886 175 882L245 1021C217 1033 173 1047 146 1052ZM261 902C280 893 304 886 325 882L395 1021C367 1033 323 1047 296 1052Z"  horiz-adv-x="335" vert-adv-y="1000"  />

      
      <glyph glyph-name="unicc" unicode="&#xcc;" d="M124 855C81 826 41 795 2 759C65 741 130 720 187 697C164 684 142 669 121 654C128 474 128 291 122 111C96 92 71 71 46 48C94 26 158 2 224-17C267 12 307 43 346 79C295 94 245 112 202 129C223 142 243 155 263 169C256 352 256 537 262 718C288 737 313 758 338 781C274 809 198 834 124 855ZM66 1021L236 872C254 876 274 883 290 892L185 1062C152 1055 100 1037 66 1021Z"  horiz-adv-x="335" vert-adv-y="1000"  />

      
      <glyph glyph-name="uni4a" unicode="&#x4a;" d="M130 855C87 826 47 795 8 759C95 735 184 708 262 677C240 663 218 649 197 634C204 415 204 194 198-26C147-12 99 6 60 26C17-3-23-34-62-70C-10-99 59-123 131-134C206-93 276-45 339 10C332 241 332 470 338 698C364 717 389 738 414 761C329 797 228 828 130 855Z"  horiz-adv-x="408" vert-adv-y="1000"  />

      
      <glyph glyph-name="uni4b" unicode="&#x4b;" d="M244-14C287 15 327 46 366 82C308 97 251 115 204 133C224 145 244 158 263 172C259 291 257 412 258 532C325 524 391 514 457 498C407 436 349 371 299 321L299 316C351 306 415 286 457 269C444 199 444 78 454 32C484 12 522-5 553-14C596 12 636 40 675 72C655 79 632 88 611 100C586 114 582 120 578 148C571 211 576 311 585 362C543 380 486 398 437 410C466 431 498 456 532 483C560 514 587 548 613 583C519 608 420 625 322 634C301 614 279 594 258 572C259 629 260 687 262 744C333 723 412 706 486 695C529 724 569 755 608 791C516 805 418 828 334 855C267 819 181 763 121 714C128 514 128 314 122 114C96 95 71 74 46 51C99 29 171 5 244-14Z"  horiz-adv-x="664" vert-adv-y="1000"  />

      
      <glyph glyph-name="uni4c" unicode="&#x4c;" d="M394-54C437-25 477 6 516 42C379 70 246 109 143 151C170 167 196 183 220 201C225 276 226 355 226 449C226 555 222 654 215 743C270 724 329 708 386 695C429 724 469 755 508 791C436 808 360 831 294 855C226 818 140 763 79 713C89 607 94 503 94 397C94 296 89 182 82 124C56 105 31 84 6 61C111 15 250-27 394-54Z"  horiz-adv-x="498" vert-adv-y="1000"  />

      
      <glyph glyph-name="uni0141" unicode="&#x0141;" d="M394-54C437-25 477 6 516 42C379 70 246 109 143 151C170 167 196 183 220 201C224 255 225 311 226 372C287 394 348 414 407 432C411 461 413 498 413 527C354 504 288 476 226 448C226 555 222 654 215 743C270 724 329 708 386 695C429 724 469 755 508 791C436 808 360 831 294 855C226 818 140 763 79 713C89 607 94 503 94 397L94 386C64 372 38 358 15 346C12 328 11 308 11 290C38 301 65 312 93 323C91 245 87 168 82 124C56 105 31 84 6 61C111 15 250-27 394-54Z"  horiz-adv-x="498" vert-adv-y="1000"  />

      
      <glyph glyph-name="uni4d" unicode="&#x4d;" d="M236-14C279 15 319 46 358 82C300 97 243 115 196 133C216 145 236 158 255 172C253 234 251 295 251 357C251 536 281 651 334 731C384 723 440 699 440 675L440 314C440 206 438 96 434-12C484 3 531 20 576 39C573 145 571 251 571 357C571 535 601 651 654 730C709 720 786 686 780 655C745 466 745 194 759 48C788 25 840-4 869-17C912 7 956 38 993 72C904 114 900 120 895 157C879 264 877 475 910 664C932 680 961 702 982 722C911 784 783 843 686 854C633 793 590 717 566 651C568 695 574 739 581 783C530 814 436 846 366 854C313 793 270 717 246 651C246 699 251 763 255 790C221 814 175 837 127 854C84 825 44 793 5 758C47 742 88 723 118 704C118 508 117 310 114 114C88 94 63 74 38 51C91 29 163 5 236-14Z"  horiz-adv-x="987" vert-adv-y="1000"  />

      
      <glyph glyph-name="uni4e" unicode="&#x4e;" d="M236-14C279 15 319 46 358 82C300 97 243 115 196 133C216 145 236 158 255 172C253 234 251 295 251 357C251 536 281 651 334 731C400 722 496 687 490 655C455 466 455 194 469 48C498 25 550-4 579-17C622 7 666 38 703 72C614 114 610 120 605 157C589 264 587 475 620 664C642 680 671 702 692 722C614 784 473 843 366 854C313 793 270 717 246 651C246 699 251 763 255 790C221 814 175 837 127 854C84 825 44 793 5 758C47 742 88 723 118 704C118 508 117 310 114 114C88 94 63 74 38 51C91 29 163 5 236-14Z"  horiz-adv-x="697" vert-adv-y="1000"  />

      
      <glyph glyph-name="uni0143" unicode="&#x0143;" d="M236-14C279 15 319 46 358 82C300 97 243 115 196 133C216 145 236 158 255 172C253 234 251 295 251 357C251 536 281 651 334 731C400 722 496 687 490 655C455 466 455 194 469 48C498 25 550-4 579-17C622 7 666 38 703 72C614 114 610 120 605 157C589 264 587 475 620 664C642 680 671 702 692 722C614 784 473 843 366 854C313 793 270 717 246 651C246 699 251 763 255 790C221 814 175 837 127 854C84 825 44 793 5 758C47 742 88 723 118 704C118 508 117 310 114 114C88 94 63 74 38 51C91 29 163 5 236-14ZM291 892C307 883 327 876 345 872L515 1021C481 1037 429 1055 396 1062Z"  horiz-adv-x="697" vert-adv-y="1000"  />

      
      <glyph glyph-name="unid1" unicode="&#xd1;" d="M236-14C279 15 319 46 358 82C300 97 243 115 196 133C216 145 236 158 255 172C253 234 251 295 251 357C251 536 281 651 334 731C400 722 496 687 490 655C455 466 455 194 469 48C498 25 550-4 579-17C622 7 666 38 703 72C614 114 610 120 605 157C589 264 587 475 620 664C642 680 671 702 692 722C614 784 473 843 366 854C313 793 270 717 246 651C246 699 251 763 255 790C221 814 175 837 127 854C84 825 44 793 5 758C47 742 88 723 118 704C118 508 117 310 114 114C88 94 63 74 38 51C91 29 163 5 236-14ZM191 914C202 906 219 897 232 892C249 905 268 917 287 926C325 917 366 902 408 882C453 912 500 951 534 988C523 996 506 1005 493 1010C476 997 457 985 438 976C399 985 359 1000 317 1020C272 990 225 951 191 914Z"  horiz-adv-x="697" vert-adv-y="1000"  />

      
      <glyph glyph-name="uni4f" unicode="&#x4f;" d="M283 855C215 823 153 789 96 746C67 646 53 500 53 333C53 245 58 155 68 73C144 36 248 3 355-17C423 15 485 49 542 92C571 192 585 338 585 505C585 593 580 683 570 765C494 802 390 835 283 855ZM185 412C185 530 193 648 207 749C281 732 351 709 409 686C434 675 438 669 442 641C449 572 453 499 453 426C453 308 445 191 431 89C357 107 287 129 229 152C204 163 200 169 196 197C189 266 185 339 185 412Z"  horiz-adv-x="638" vert-adv-y="1000"  />

      
      <glyph glyph-name="unid3" unicode="&#xd3;" d="M283 855C215 823 153 789 96 746C67 646 53 500 53 333C53 245 58 155 68 73C144 36 248 3 355-17C423 15 485 49 542 92C571 192 585 338 585 505C585 593 580 683 570 765C494 802 390 835 283 855ZM185 412C185 530 193 648 207 749C281 732 351 709 409 686C434 675 438 669 442 641C449 572 453 499 453 426C453 308 445 191 431 89C357 107 287 129 229 152C204 163 200 169 196 197C189 266 185 339 185 412ZM267 892C283 883 303 876 321 872L491 1021C457 1037 405 1055 372 1062Z"  horiz-adv-x="638" vert-adv-y="1000"  />

      
      <glyph glyph-name="unid4" unicode="&#xd4;" d="M283 855C215 823 153 789 96 746C67 646 53 500 53 333C53 245 58 155 68 73C144 36 248 3 355-17C423 15 485 49 542 92C571 192 585 338 585 505C585 593 580 683 570 765C494 802 390 835 283 855ZM185 412C185 530 193 648 207 749C281 732 351 709 409 686C434 675 438 669 442 641C449 572 453 499 453 426C453 308 445 191 431 89C357 107 287 129 229 152C204 163 200 169 196 197C189 266 185 339 185 412ZM187 892C202 883 220 876 236 872L339 978L442 872C458 876 476 883 491 892L388 1058C357 1062 321 1062 290 1058Z"  horiz-adv-x="638" vert-adv-y="1000"  />

      
      <glyph glyph-name="unid6" unicode="&#xd6;" d="M283 855C215 823 153 789 96 746C67 646 53 500 53 333C53 245 58 155 68 73C144 36 248 3 355-17C423 15 485 49 542 92C571 192 585 338 585 505C585 593 580 683 570 765C494 802 390 835 283 855ZM185 412C185 530 193 648 207 749C281 732 351 709 409 686C434 675 438 669 442 641C449 572 453 499 453 426C453 308 445 191 431 89C357 107 287 129 229 152C204 163 200 169 196 197C189 266 185 339 185 412ZM232 902C251 893 275 886 296 882L366 1021C338 1033 294 1047 267 1052ZM382 902C401 893 425 886 446 882L516 1021C488 1033 444 1047 417 1052Z"  horiz-adv-x="638" vert-adv-y="1000"  />

      
      <glyph glyph-name="unid2" unicode="&#xd2;" d="M283 855C215 823 153 789 96 746C67 646 53 500 53 333C53 245 58 155 68 73C144 36 248 3 355-17C423 15 485 49 542 92C571 192 585 338 585 505C585 593 580 683 570 765C494 802 390 835 283 855ZM185 412C185 530 193 648 207 749C281 732 351 709 409 686C434 675 438 669 442 641C449 572 453 499 453 426C453 308 445 191 431 89C357 107 287 129 229 152C204 163 200 169 196 197C189 266 185 339 185 412ZM187 1021L357 872C375 876 395 883 411 892L306 1062C273 1055 221 1037 187 1021Z"  horiz-adv-x="638" vert-adv-y="1000"  />

      
      <glyph glyph-name="unid5" unicode="&#xd5;" d="M283 855C215 823 153 789 96 746C67 646 53 500 53 333C53 245 58 155 68 73C144 36 248 3 355-17C423 15 485 49 542 92C571 192 585 338 585 505C585 593 580 683 570 765C494 802 390 835 283 855ZM167 914C178 906 195 897 208 892C225 905 244 917 263 926C301 917 342 902 384 882C429 912 476 951 510 988C499 996 482 1005 469 1010C452 997 433 985 414 976C375 985 335 1000 293 1020C248 990 201 951 167 914ZM185 412C185 530 193 648 207 749C281 732 351 709 409 686C434 675 438 669 442 641C449 572 453 499 453 426C453 308 445 191 431 89C357 107 287 129 229 152C204 163 200 169 196 197C189 266 185 339 185 412Z"  horiz-adv-x="638" vert-adv-y="1000"  />

      
      <glyph glyph-name="uni0152" unicode="&#x0152;" d="M283 855C215 823 153 789 96 746C67 646 53 500 53 333C53 245 58 155 68 73C144 36 248 3 355-17C403 6 448 29 491 57C576 28 678 4 783-14C826 15 866 46 905 82C777 105 654 138 560 171C572 234 579 308 583 390C654 389 740 384 807 378C833 409 857 447 879 489C805 497 708 501 633 501C616 480 599 456 584 430C585 455 585 480 585 505C585 586 581 669 572 745C637 725 708 708 775 695C818 724 858 755 897 791C815 808 728 831 653 855C616 835 573 809 532 782C461 812 373 838 283 855ZM185 412C185 530 193 648 207 749C281 732 351 709 409 686C434 675 438 669 442 641C449 572 453 499 453 426C453 308 445 191 431 89C357 107 287 129 229 152C204 163 200 169 196 197C189 266 185 339 185 412Z"  horiz-adv-x="909" vert-adv-y="1000"  />

      
      <glyph glyph-name="uni50" unicode="&#x50;" d="M451 664C506 511 499 321 447 221C380 234 316 252 258 272C257 432 259 592 262 752C316 738 367 722 409 706C435 696 440 690 451 664ZM8 758C50 742 91 723 121 704C125 562 126 420 126 277C99 257 72 235 46 211C70 199 97 187 126 177C125 84 123-9 121-102C171-87 218-70 263-51L259 137C297 129 336 121 375 116C412 136 446 160 477 187C610 303 650 584 571 786C514 812 438 836 358 854C324 831 293 807 262 781C227 806 180 832 130 854C87 825 47 793 8 758Z"  horiz-adv-x="645" vert-adv-y="1000"  />

      
      <glyph glyph-name="uni51" unicode="&#x51;" d="M53 333C53 245 58 155 68 73C194 11 397-63 576-109C616-86 662-52 702-19C622 3 543 28 469 55C499 71 527 87 552 102C574 200 585 342 585 505C585 593 580 683 570 765C494 802 390 835 283 855C215 823 153 789 96 746C67 646 53 500 53 333ZM185 412C185 530 193 648 207 749C281 732 351 709 409 686C434 675 438 669 442 641C449 572 453 499 453 426C453 301 446 176 434 67C359 95 290 123 229 151C204 163 200 169 196 197C189 266 185 339 185 412Z"  horiz-adv-x="638" vert-adv-y="1000"  />

      
      <glyph glyph-name="uni52" unicode="&#x52;" d="M224-14C267 15 307 46 346 82C295 97 245 115 202 132C223 145 243 158 263 172C256 365 256 558 262 751C313 736 361 719 400 702C425 690 430 684 435 657C445 586 438 505 412 465C374 441 338 416 303 387C359 370 415 348 454 327C447 216 446 90 452 34C482 15 525-5 553-14C597 10 638 39 675 72C658 78 634 88 612 100C587 114 584 120 582 148C578 212 580 316 586 409C551 428 502 448 454 464C562 562 590 675 561 780C507 808 433 834 358 854C324 831 293 807 262 781C227 806 180 832 130 854C87 825 47 793 8 758C50 742 91 723 121 704C128 507 128 311 122 114C96 95 71 74 46 51C94 29 158 5 224-14Z"  horiz-adv-x="664" vert-adv-y="1000"  />

      
      <glyph glyph-name="uni53" unicode="&#x53;" d="M500 528C406 499 316 478 244 464C217 459 211 462 198 486C161 566 156 665 196 739C266 706 340 679 404 664C447 693 487 724 526 760C443 783 353 817 277 855C240 835 206 811 175 784C31 659 10 511 82 364C170 382 262 398 346 408C374 412 379 408 390 382C421 295 423 189 396 88C320 141 220 193 132 219C88 192 39 154 10 124C103 99 224 42 320-17C357 3 391 27 422 54C577 188 577 362 500 528Z"  horiz-adv-x="595" vert-adv-y="1000"  />

      
      <glyph glyph-name="uni015A" unicode="&#x015A;" d="M500 528C406 499 316 478 244 464C217 459 211 462 198 486C161 566 156 665 196 739C266 706 340 679 404 664C447 693 487 724 526 760C443 783 353 817 277 855C240 835 206 811 175 784C31 659 10 511 82 364C170 382 262 398 346 408C374 412 379 408 390 382C421 295 423 189 396 88C320 141 220 193 132 219C88 192 39 154 10 124C103 99 224 42 320-17C357 3 391 27 422 54C577 188 577 362 500 528ZM355 1062L250 892C266 883 286 876 304 872L474 1021C440 1037 388 1055 355 1062Z"  horiz-adv-x="595" vert-adv-y="1000"  />

      
      <glyph glyph-name="uni54" unicode="&#x54;" d="M53 497C77 509 121 542 148 571C125 630 111 694 104 751C181 742 258 731 333 717C305 700 277 683 251 664C258 484 258 304 252 124C226 105 201 84 176 61C235 36 313 8 394-14C437 15 477 46 516 82C450 100 387 122 333 143C354 155 374 168 393 182C387 356 386 531 391 705C445 693 497 680 546 665C566 695 590 739 607 779C471 818 301 845 154 855C102 819 51 773 12 729C14 652 32 553 53 497Z"  horiz-adv-x="599" vert-adv-y="1000"  />

      
      <glyph glyph-name="uni55" unicode="&#x55;" d="M567-16C611 8 652 37 689 70C672 76 648 86 626 98C601 112 598 118 598 146L598 506C598 618 600 729 603 840C553 814 506 786 461 754C465 643 466 532 466 420C466 308 465 195 461 83C360 106 261 137 189 169C250 324 274 555 254 711C283 733 311 756 338 781C274 809 198 834 124 855C81 826 41 795 2 759C66 741 131 720 188 697C165 683 142 669 119 653C144 500 127 245 76 69C151 35 251 4 354-16C388 7 420 31 451 57C486 28 534-3 567-16Z"  horiz-adv-x="678" vert-adv-y="1000"  />

      
      <glyph glyph-name="unida" unicode="&#xda;" d="M567-16C611 8 652 37 689 70C672 76 648 86 626 98C601 112 598 118 598 146L598 506C598 618 600 729 603 840C553 814 506 786 461 754C465 643 466 532 466 420C466 308 465 195 461 83C360 106 261 137 189 169C250 324 274 555 254 711C283 733 311 756 338 781C274 809 198 834 124 855C81 826 41 795 2 759C66 741 131 720 188 697C165 683 142 669 119 653C144 500 127 245 76 69C151 35 251 4 354-16C388 7 420 31 451 57C486 28 534-3 567-16ZM317 892C333 883 353 876 371 872L541 1021C507 1037 455 1055 422 1062Z"  horiz-adv-x="678" vert-adv-y="1000"  />

      
      <glyph glyph-name="unidb" unicode="&#xdb;" d="M567-16C611 8 652 37 689 70C672 76 648 86 626 98C601 112 598 118 598 146L598 506C598 618 600 729 603 840C553 814 506 786 461 754C465 643 466 532 466 420C466 308 465 195 461 83C360 106 261 137 189 169C250 324 274 555 254 711C283 733 311 756 338 781C274 809 198 834 124 855C81 826 41 795 2 759C66 741 131 720 188 697C165 683 142 669 119 653C144 500 127 245 76 69C151 35 251 4 354-16C388 7 420 31 451 57C486 28 534-3 567-16ZM237 892C252 883 270 876 286 872L389 978L492 872C508 876 526 883 541 892L438 1058C407 1062 371 1062 340 1058Z"  horiz-adv-x="678" vert-adv-y="1000"  />

      
      <glyph glyph-name="unidc" unicode="&#xdc;" d="M567-16C611 8 652 37 689 70C672 76 648 86 626 98C601 112 598 118 598 146L598 506C598 618 600 729 603 840C553 814 506 786 461 754C465 643 466 532 466 420C466 308 465 195 461 83C360 106 261 137 189 169C250 324 274 555 254 711C283 733 311 756 338 781C274 809 198 834 124 855C81 826 41 795 2 759C66 741 131 720 188 697C165 683 142 669 119 653C144 500 127 245 76 69C151 35 251 4 354-16C388 7 420 31 451 57C486 28 534-3 567-16ZM282 902C301 893 325 886 346 882L416 1021C388 1033 344 1047 317 1052ZM432 902C451 893 475 886 496 882L566 1021C538 1033 494 1047 467 1052Z"  horiz-adv-x="678" vert-adv-y="1000"  />

      
      <glyph glyph-name="unid9" unicode="&#xd9;" d="M567-16C611 8 652 37 689 70C672 76 648 86 626 98C601 112 598 118 598 146L598 506C598 618 600 729 603 840C553 814 506 786 461 754C465 643 466 532 466 420C466 308 465 195 461 83C360 106 261 137 189 169C250 324 274 555 254 711C283 733 311 756 338 781C274 809 198 834 124 855C81 826 41 795 2 759C66 741 131 720 188 697C165 683 142 669 119 653C144 500 127 245 76 69C151 35 251 4 354-16C388 7 420 31 451 57C486 28 534-3 567-16ZM237 1021L407 872C425 876 445 883 461 892L356 1062C323 1055 271 1037 237 1021Z"  horiz-adv-x="678" vert-adv-y="1000"  />

      
      <glyph glyph-name="uni56" unicode="&#x56;" d="M354-14C573 114 652 312 652 546C652 654 634 768 601 854C556 834 501 798 461 764C554 571 544 275 424 92C344 111 267 136 203 162C223 175 243 188 263 202C256 374 256 546 262 718C288 737 313 758 338 781C274 809 198 834 124 855C81 826 41 795 2 759C65 741 130 720 187 697C164 684 142 669 121 654C128 484 128 314 122 144C96 125 71 104 46 81C129 43 240 8 354-14Z"  horiz-adv-x="696" vert-adv-y="1000"  />

      
      <glyph glyph-name="uni57" unicode="&#x57;" d="M124 855C81 826 41 795 2 759C65 741 130 720 187 697C164 684 142 669 121 654C128 487 128 321 122 154C96 135 71 114 46 91C121 51 221 13 324-14C358 9 390 33 421 59C473 20 562-8 632-16C830 97 902 272 902 506C902 616 879 746 831 854C786 834 731 798 691 764C785 570 811 288 703 91C649 98 568 128 568 153L568 436C568 525 570 615 572 703C598 722 623 743 648 766C599 788 541 809 484 825C441 796 401 765 362 729C408 716 455 700 497 682C475 669 453 654 431 639C435 554 436 466 436 380C436 282 435 184 431 86C348 109 267 139 200 171C222 184 243 197 263 212C256 381 256 549 262 718C288 737 313 758 338 781C274 809 198 834 124 855Z"  horiz-adv-x="936" vert-adv-y="1000"  />

      
      <glyph glyph-name="uni58" unicode="&#x58;" d="M109 855C70 827 32 795-4 757C45 740 90 720 130 697C172 611 208 508 250 400C149 271 60 147 1 45C53 16 132-4 193-12C236 16 274 48 313 86C255 98 193 117 145 140C171 187 217 259 273 339C311 242 355 142 410 46C456 20 503 1 544-12C583 16 621 48 658 86C616 100 569 119 524 144C472 234 430 328 393 419C501 561 599 699 651 799C599 827 521 847 461 855C418 827 380 795 341 757C396 747 459 729 508 707C484 659 431 575 370 480C325 595 287 704 243 794C203 818 159 838 109 855Z"  horiz-adv-x="654" vert-adv-y="1000"  />

      
      <glyph glyph-name="uni59" unicode="&#x59;" d="M354-123C424-92 497-48 550-3C607 251 621 623 591 854C546 834 491 798 451 764C469 617 474 417 461 238C361 260 265 290 192 321C250 434 273 598 254 712C283 733 311 756 338 781C274 809 198 834 124 855C81 826 41 795 2 759C66 741 131 720 188 697C165 683 142 669 119 653C144 540 127 352 76 222C154 188 257 157 364 137C397 159 429 183 459 209C452 127 442 50 427-15C332 23 232 53 148 68C105 39 65 8 26-28C125-46 243-81 354-123Z"  horiz-adv-x="651" vert-adv-y="1000"  />

      
      <glyph glyph-name="uni0178" unicode="&#x0178;" d="M354-123C424-92 497-48 550-3C607 251 621 623 591 854C546 834 491 798 451 764C469 617 474 417 461 238C361 260 265 290 192 321C250 434 273 598 254 712C283 733 311 756 338 781C274 809 198 834 124 855C81 826 41 795 2 759C66 741 131 720 188 697C165 683 142 669 119 653C144 540 127 352 76 222C154 188 257 157 364 137C397 159 429 183 459 209C452 127 442 50 427-15C332 23 232 53 148 68C105 39 65 8 26-28C125-46 243-81 354-123ZM294 902C313 893 337 886 358 882L428 1021C400 1033 356 1047 329 1052ZM444 902C463 893 487 886 508 882L578 1021C550 1033 506 1047 479 1052Z"  horiz-adv-x="651" vert-adv-y="1000"  />

      
      <glyph glyph-name="uni5a" unicode="&#x5a;" d="M181 456C159 431 138 401 119 370C155 369 195 366 236 363C179 285 119 210 60 143C40 99 23 56 12 21C151 18 328 4 487-20C520 20 551 63 579 111C431 132 265 143 137 145C196 205 258 278 319 355C366 350 411 344 452 338C474 362 495 392 514 424C474 430 430 436 385 441C445 523 502 607 551 687C563 723 575 769 583 805C440 811 259 829 116 855C79 807 44 755 12 697C14 633 32 551 53 505C77 517 121 550 148 579C126 624 113 672 105 716C222 697 353 687 449 685C407 611 355 530 298 449C257 452 217 455 181 456Z"  horiz-adv-x="592" vert-adv-y="1000"  />

      
      <glyph glyph-name="uni0179" unicode="&#x0179;" d="M181 456C159 431 138 401 119 370C155 369 195 366 236 363C179 285 119 210 60 143C40 99 23 56 12 21C151 18 328 4 487-20C520 20 551 63 579 111C431 132 265 143 137 145C196 205 258 278 319 355C366 350 411 344 452 338C474 362 495 392 514 424C474 430 430 436 385 441C445 523 502 607 551 687C563 723 575 769 583 805C440 811 259 829 116 855C79 807 44 755 12 697C14 633 32 551 53 505C77 517 121 550 148 579C126 624 113 672 105 716C222 697 353 687 449 685C407 611 355 530 298 449C257 452 217 455 181 456ZM258 892C274 883 294 876 312 872L482 1021C448 1037 396 1055 363 1062Z"  horiz-adv-x="592" vert-adv-y="1000"  />

      
      <glyph glyph-name="uni017B" unicode="&#x017B;" d="M181 456C159 431 138 401 119 370C155 369 195 366 236 363C179 285 119 210 60 143C40 99 23 56 12 21C151 18 328 4 487-20C520 20 551 63 579 111C431 132 265 143 137 145C196 205 258 278 319 355C366 350 411 344 452 338C474 362 495 392 514 424C474 430 430 436 385 441C445 523 502 607 551 687C563 723 575 769 583 805C440 811 259 829 116 855C79 807 44 755 12 697C14 633 32 551 53 505C77 517 121 550 148 579C126 624 113 672 105 716C222 697 353 687 449 685C407 611 355 530 298 449C257 452 217 455 181 456ZM271 912C296 899 327 888 355 882L435 1021C401 1037 349 1055 316 1062Z"  horiz-adv-x="592" vert-adv-y="1000"  />

      
      <glyph glyph-name="uni61" unicode="&#x61;" d="M16 252C23 171 55 58 97-12C185 19 244 62 284 110C286 82 289 54 293 31C310 15 341-3 364-12C409 14 451 43 492 77C479 83 462 92 447 101C424 118 420 124 417 152C403 267 411 442 420 541C374 577 297 609 230 618C166 585 71 514 27 466C47 411 81 351 118 310C81 291 45 271 16 252ZM144 519C206 515 286 477 286 446C286 417 281 315 281 197C264 154 237 114 212 89C178 143 156 229 156 266C156 281 166 290 230 331C186 395 156 460 144 519Z"  horiz-adv-x="482" vert-adv-y="1000"  />

      
      <glyph glyph-name="unie1" unicode="&#xe1;" d="M223 642L393 791C359 807 307 825 274 832L169 662C185 653 205 646 223 642ZM16 252C23 171 55 58 97-12C185 19 244 62 284 110C286 82 289 54 293 31C310 15 341-3 364-12C409 14 451 43 492 77C479 83 462 92 447 101C424 118 420 124 417 152C403 267 411 442 420 541C374 577 297 609 230 618C166 585 71 514 27 466C47 411 81 351 118 310C81 291 45 271 16 252ZM144 519C206 515 286 477 286 446C286 417 281 315 281 197C264 154 237 114 212 89C178 143 156 229 156 266C156 281 166 290 230 331C186 395 156 460 144 519Z"  horiz-adv-x="482" vert-adv-y="1000"  />

      
      <glyph glyph-name="unie2" unicode="&#xe2;" d="M138 642L241 748L344 642C360 646 378 653 393 662L290 828C259 832 223 832 192 828L89 662C104 653 122 646 138 642ZM16 252C23 171 55 58 97-12C185 19 244 62 284 110C286 82 289 54 293 31C310 15 341-3 364-12C409 14 451 43 492 77C479 83 462 92 447 101C424 118 420 124 417 152C403 267 411 442 420 541C374 577 297 609 230 618C166 585 71 514 27 466C47 411 81 351 118 310C81 291 45 271 16 252ZM144 519C206 515 286 477 286 446C286 417 281 315 281 197C264 154 237 114 212 89C178 143 156 229 156 266C156 281 166 290 230 331C186 395 156 460 144 519Z"  horiz-adv-x="482" vert-adv-y="1000"  />

      
      <glyph glyph-name="unie4" unicode="&#xe4;" d="M198 652L268 791C240 803 196 817 169 822L134 672C153 663 177 656 198 652ZM16 252C23 171 55 58 97-12C185 19 244 62 284 110C286 82 289 54 293 31C310 15 341-3 364-12C409 14 451 43 492 77C479 83 462 92 447 101C424 118 420 124 417 152C403 267 411 442 420 541C374 577 297 609 230 618C166 585 71 514 27 466C47 411 81 351 118 310C81 291 45 271 16 252ZM144 519C206 515 286 477 286 446C286 417 281 315 281 197C264 154 237 114 212 89C178 143 156 229 156 266C156 281 166 290 230 331C186 395 156 460 144 519ZM284 672C303 663 327 656 348 652L418 791C390 803 346 817 319 822Z"  horiz-adv-x="482" vert-adv-y="1000"  />

      
      <glyph glyph-name="unie0" unicode="&#xe0;" d="M89 791L259 642C277 646 297 653 313 662L208 832C175 825 123 807 89 791ZM16 252C23 171 55 58 97-12C185 19 244 62 284 110C286 82 289 54 293 31C310 15 341-3 364-12C409 14 451 43 492 77C479 83 462 92 447 101C424 118 420 124 417 152C403 267 411 442 420 541C374 577 297 609 230 618C166 585 71 514 27 466C47 411 81 351 118 310C81 291 45 271 16 252ZM144 519C206 515 286 477 286 446C286 417 281 315 281 197C264 154 237 114 212 89C178 143 156 229 156 266C156 281 166 290 230 331C186 395 156 460 144 519Z"  horiz-adv-x="482" vert-adv-y="1000"  />

      
      <glyph glyph-name="uni0105" unicode="&#x0105;" d="M16 252C23 171 55 58 97-12C185 19 244 62 284 110C286 82 289 54 293 31C301 23 313 15 326 7C291-37 261-82 238-121C288-143 356-155 417-157C436-130 459-90 474-57C432-55 384-49 347-40C353-31 359-21 365-12C410 14 451 43 492 77C479 83 462 92 447 101C424 118 420 124 417 152C403 267 411 442 420 541C374 577 297 609 230 618C166 585 71 514 27 466C47 411 81 351 118 310C81 291 45 271 16 252ZM144 519C206 515 286 477 286 446C286 417 281 315 281 197C264 154 237 114 212 89C178 143 156 229 156 266C156 281 166 290 230 331C186 395 156 460 144 519Z"  horiz-adv-x="482" vert-adv-y="1000"  />

      
      <glyph glyph-name="unie3" unicode="&#xe3;" d="M286 652C331 682 378 721 412 758C401 766 384 775 371 780C354 767 335 755 316 746C277 755 237 770 195 790C150 760 103 721 69 684C80 676 97 667 110 662C127 675 146 687 165 696C203 687 244 672 286 652ZM16 252C23 171 55 58 97-12C185 19 244 62 284 110C286 82 289 54 293 31C310 15 341-3 364-12C409 14 451 43 492 77C479 83 462 92 447 101C424 118 420 124 417 152C403 267 411 442 420 541C374 577 297 609 230 618C166 585 71 514 27 466C47 411 81 351 118 310C81 291 45 271 16 252ZM144 519C206 515 286 477 286 446C286 417 281 315 281 197C264 154 237 114 212 89C178 143 156 229 156 266C156 281 166 290 230 331C186 395 156 460 144 519Z"  horiz-adv-x="482" vert-adv-y="1000"  />

      
      <glyph glyph-name="unie6" unicode="&#xe6;" d="M484-17C530 8 572 38 613 72C558 90 494 114 463 130C418 153 415 159 413 206L412 238C492 286 587 354 631 400C602 484 554 567 507 618C468 601 429 582 391 561C346 588 284 611 230 618C166 585 71 514 27 466C47 411 81 351 118 310C81 291 45 271 16 252C23 171 55 58 97-12C187 20 247 64 287 114L289 72C350 36 422 3 484-17ZM144 519C193 515 250 491 284 465C280 392 279 304 283 201C262 152 236 113 212 89C178 143 156 229 156 266C156 281 166 290 230 331C186 395 156 460 144 519ZM409 310C408 386 409 459 412 518C460 457 501 372 501 354C501 344 485 335 409 310Z"  horiz-adv-x="634" vert-adv-y="1000"  />

      
      <glyph glyph-name="uni62" unicode="&#x62;" d="M241-20C309 12 398 67 446 107C452 248 451 420 443 557C400 584 344 605 289 617C258 602 220 579 188 558C189 691 193 772 201 857C170 848 133 833 101 819C87 825 68 832 53 835C59 727 60 634 60 415C60 189 55 116 47 45C106 18 178-4 241-20ZM188 169L188 483L188 521C219 512 253 500 281 486C311 471 316 459 317 431C322 322 324 194 320 80C285 89 252 99 225 109C194 121 188 129 188 169Z"  horiz-adv-x="504" vert-adv-y="1000"  />

      
      <glyph glyph-name="uni63" unicode="&#x63;" d="M237-12C283 14 325 43 366 77C311 99 264 120 236 135C191 159 188 164 186 211C181 310 180 415 184 498C220 479 255 457 285 433C313 460 351 510 374 550C343 576 291 602 240 618C179 585 117 543 60 499C51 395 51 254 62 76C122 38 182 8 237-12Z"  horiz-adv-x="378" vert-adv-y="1000"  />

      
      <glyph glyph-name="uni0107" unicode="&#x0107;" d="M237-12C283 14 325 43 366 77C311 99 264 120 236 135C191 159 188 164 186 211C181 310 180 415 184 498C220 479 255 457 285 433C313 460 351 510 374 550C343 576 291 602 240 618C179 585 117 543 60 499C51 395 51 254 62 76C122 38 182 8 237-12ZM117 662C133 653 153 646 171 642L341 791C307 807 255 825 222 832Z"  horiz-adv-x="378" vert-adv-y="1000"  />

      
      <glyph glyph-name="unie7" unicode="&#xe7;" d="M237-12C283 14 325 43 366 77C311 99 264 120 236 135C191 159 188 164 186 211C181 310 180 415 184 498C220 479 255 457 285 433C313 460 351 510 374 550C343 576 291 602 240 618C179 585 117 543 60 499C51 395 51 254 62 76C102 51 142 29 181 11C144-20 110-51 86-79C134-101 186-128 225-154C249-132 278-100 297-74C266-56 232-38 203-25C208-18 212-11 217-4Z"  horiz-adv-x="378" vert-adv-y="1000"  />

      
      <glyph glyph-name="uni64" unicode="&#x64;" d="M60 40C108 19 172-2 236-18C291 5 379 59 435 100C447 213 448 424 437 560C366 639 251 729 114 822C79 799 34 757 10 728C91 670 152 626 197 591C144 564 94 533 58 504C52 390 53 196 60 40ZM184 506C186 527 194 540 232 564C256 544 273 529 284 517C304 495 310 483 312 454C318 376 317 195 314 80C200 114 188 124 186 156C179 246 180 446 184 506Z"  horiz-adv-x="499" vert-adv-y="1000"  />

      
      <glyph glyph-name="uni65" unicode="&#x65;" d="M257-17C303 8 345 38 386 72C331 90 267 114 236 130C191 153 188 159 186 206L185 238C265 286 360 354 404 400C375 484 327 567 280 618C205 585 129 543 60 499C51 393 51 252 62 72C123 36 195 3 257-17ZM182 310C181 386 182 459 185 518C233 457 274 372 274 354C274 344 258 335 182 310Z"  horiz-adv-x="407" vert-adv-y="1000"  />

      
      <glyph glyph-name="unie9" unicode="&#xe9;" d="M257-17C303 8 345 38 386 72C331 90 267 114 236 130C191 153 188 159 186 206L185 238C265 286 360 354 404 400C375 484 327 567 280 618C205 585 129 543 60 499C51 393 51 252 62 72C123 36 195 3 257-17ZM132 662C148 653 168 646 186 642L356 791C322 807 270 825 237 832ZM182 310C181 386 182 459 185 518C233 457 274 372 274 354C274 344 258 335 182 310Z"  horiz-adv-x="407" vert-adv-y="1000"  />

      
      <glyph glyph-name="uniea" unicode="&#xea;" d="M257-17C303 8 345 38 386 72C331 90 267 114 236 130C191 153 188 159 186 206L185 238C265 286 360 354 404 400C375 484 327 567 280 618C205 585 129 543 60 499C51 393 51 252 62 72C123 36 195 3 257-17ZM52 662C67 653 85 646 101 642L204 748L307 642C323 646 341 653 356 662L253 828C222 832 186 832 155 828ZM182 310C181 386 182 459 185 518C233 457 274 372 274 354C274 344 258 335 182 310Z"  horiz-adv-x="407" vert-adv-y="1000"  />

      
      <glyph glyph-name="unieb" unicode="&#xeb;" d="M257-17C303 8 345 38 386 72C331 90 267 114 236 130C191 153 188 159 186 206L185 238C265 286 360 354 404 400C375 484 327 567 280 618C205 585 129 543 60 499C51 393 51 252 62 72C123 36 195 3 257-17ZM97 672C116 663 140 656 161 652L231 791C203 803 159 817 132 822ZM182 310C181 386 182 459 185 518C233 457 274 372 274 354C274 344 258 335 182 310ZM247 672C266 663 290 656 311 652L381 791C353 803 309 817 282 822Z"  horiz-adv-x="407" vert-adv-y="1000"  />

      
      <glyph glyph-name="unie8" unicode="&#xe8;" d="M257-17C303 8 345 38 386 72C331 90 267 114 236 130C191 153 188 159 186 206L185 238C265 286 360 354 404 400C375 484 327 567 280 618C205 585 129 543 60 499C51 393 51 252 62 72C123 36 195 3 257-17ZM52 791L222 642C240 646 260 653 276 662L171 832C138 825 86 807 52 791ZM182 310C181 386 182 459 185 518C233 457 274 372 274 354C274 344 258 335 182 310Z"  horiz-adv-x="407" vert-adv-y="1000"  />

      
      <glyph glyph-name="uni0119" unicode="&#x0119;" d="M60 499C51 393 51 252 62 72C110 44 164 17 215-2C184-44 156-85 135-121C185-143 253-155 314-157C333-130 356-90 371-57C329-55 281-49 244-40L259-16C304 9 346 39 386 72C331 90 267 114 236 130C191 153 188 159 186 206L185 238C265 286 360 354 404 400C375 484 327 567 280 618C205 585 129 543 60 499ZM182 310C181 386 182 459 185 518C233 457 274 372 274 354C274 344 258 335 182 310Z"  horiz-adv-x="407" vert-adv-y="1000"  />

      
      <glyph glyph-name="uni66" unicode="&#x66;" d="M78-103C120-84 176-53 216-23C212 126 211 284 211 433L211 492L310 492C314 523 322 567 330 600L211 600L213 743C251 727 288 709 314 694C329 721 351 782 360 820C330 837 287 851 245 859C190 832 128 793 79 754C80 702 81 647 82 593C54 563 27 529 4 492L83 492L83 406C83 241 82 63 78-103Z"  horiz-adv-x="335" vert-adv-y="1000"  />

      
      <glyph glyph-name="uni67" unicode="&#x67;" d="M11-126C88-145 228-164 327-170C382-140 461-85 505-47C493 25 469 105 440 167C444 258 445 365 441 461C472 488 500 517 525 546C436 564 339 591 253 617C193 585 115 536 58 493C52 356 53 213 59 77C108 55 164 36 214 23C246 42 283 67 319 94C341 44 361-14 374-69C283-55 193-37 101-15C69-50 39-88 11-126ZM184 510C226 494 268 480 310 468C317 357 319 229 314 119C279 128 248 139 222 149C191 161 186 169 185 209C182 309 181 411 184 510Z"  horiz-adv-x="529" vert-adv-y="1000"  />

      
      <glyph glyph-name="uni68" unicode="&#x68;" d="M319 444C322 414 323 345 323 289C323 116 312-29 297-123C337-101 395-62 435-27C446 81 451 207 451 326C451 396 449 486 443 555C405 584 343 607 294 613C266 601 224 573 188 544C189 685 193 769 201 857C170 848 133 833 101 819C87 825 68 832 53 835C59 727 60 634 60 415C60 271 59 127 55-17C100-5 153 14 193 33C189 183 188 333 188 483L188 507C233 505 317 469 319 444Z"  horiz-adv-x="505" vert-adv-y="1000"  />

      
      <glyph glyph-name="uni69" unicode="&#x69;" d="M58 48C83 26 119-2 139-15C182 8 227 39 264 72C205 112 196 124 196 157C196 309 198 448 206 547C189 571 157 598 130 614C84 591 37 559 2 525C24 511 59 477 74 456C74 322 68 140 58 48ZM76 682C101 669 132 658 160 652L240 791C206 807 154 825 121 832Z"  horiz-adv-x="269" vert-adv-y="1000"  />

      
      <glyph glyph-name="uni0131" unicode="&#x0131;" d="M58 48C83 26 119-2 139-15C182 8 227 39 264 72C205 112 196 124 196 157C196 309 198 448 206 547C189 571 157 598 130 614C84 591 37 559 2 525C24 511 59 477 74 456C74 322 68 140 58 48Z"  horiz-adv-x="269" vert-adv-y="1000"  />

      
      <glyph glyph-name="unied" unicode="&#xed;" d="M58 48C83 26 119-2 139-15C182 8 227 39 264 72C205 112 196 124 196 157C196 309 198 448 206 547C189 571 157 598 130 614C84 591 37 559 2 525C24 511 59 477 74 456C74 322 68 140 58 48ZM63 662C79 653 99 646 117 642L287 791C253 807 201 825 168 832Z"  horiz-adv-x="269" vert-adv-y="1000"  />

      
      <glyph glyph-name="uniee" unicode="&#xee;" d="M58 48C83 26 119-2 139-15C182 8 227 39 264 72C205 112 196 124 196 157C196 309 198 448 206 547C189 571 157 598 130 614C84 591 37 559 2 525C24 511 59 477 74 456C74 322 68 140 58 48ZM-17 662C-2 653 16 646 32 642L135 748L238 642C254 646 272 653 287 662L184 828C153 832 117 832 86 828Z"  horiz-adv-x="269" vert-adv-y="1000"  />

      
      <glyph glyph-name="unief" unicode="&#xef;" d="M58 48C83 26 119-2 139-15C182 8 227 39 264 72C205 112 196 124 196 157C196 309 198 448 206 547C189 571 157 598 130 614C84 591 37 559 2 525C24 511 59 477 74 456C74 322 68 140 58 48ZM28 672C47 663 71 656 92 652L162 791C134 803 90 817 63 822ZM178 672C197 663 221 656 242 652L312 791C284 803 240 817 213 822Z"  horiz-adv-x="269" vert-adv-y="1000"  />

      
      <glyph glyph-name="uniec" unicode="&#xec;" d="M58 48C83 26 119-2 139-15C182 8 227 39 264 72C205 112 196 124 196 157C196 309 198 448 206 547C189 571 157 598 130 614C84 591 37 559 2 525C24 511 59 477 74 456C74 322 68 140 58 48ZM-17 791L153 642C171 646 191 653 207 662L102 832C69 825 17 807-17 791Z"  horiz-adv-x="269" vert-adv-y="1000"  />

      
      <glyph glyph-name="uni6a" unicode="&#x6a;" d="M206 547C189 571 157 598 130 614C84 591 37 559 2 525C24 511 59 477 74 456C74 290 72 150 69 73C66-18 54-91 27-168L40-168C89-130 156-50 197 30C203 203 203 457 206 547ZM76 682C101 669 132 658 160 652L240 791C206 807 154 825 121 832Z"  horiz-adv-x="268" vert-adv-y="1000"  />

      
      <glyph glyph-name="uni0237" unicode="&#x0237;" d="M206 547C189 571 157 598 130 614C84 591 37 559 2 525C24 511 59 477 74 456C74 290 72 150 69 73C66-18 54-91 27-168L40-168C89-130 156-50 197 30C203 203 203 457 206 547Z"  horiz-adv-x="268" vert-adv-y="1000"  />

      
      <glyph glyph-name="uni6b" unicode="&#x6b;" d="M355-17C402 8 445 38 483 72C434 98 428 104 425 127C421 157 421 251 432 325C402 346 346 369 293 384C369 435 419 476 454 511C428 549 387 591 351 616C306 593 267 566 230 531C277 491 294 472 294 457C294 440 266 407 188 339L188 483C188 662 192 757 201 857C170 848 133 833 101 819C87 825 68 832 53 835C59 727 60 634 60 415C60 271 59 127 55-17C100-5 153 14 193 33C191 123 189 213 189 304C270 282 304 265 304 249C304 237 288 101 299 16C317 3 338-10 355-17Z"  horiz-adv-x="485" vert-adv-y="1000"  />

      
      <glyph glyph-name="uni6c" unicode="&#x6c;" d="M137-21C183 5 225 34 265 68C192 118 188 128 188 164L188 483C188 662 192 757 201 857C170 848 133 833 101 819C87 825 68 832 53 835C59 727 60 634 60 415C60 187 56 119 47 48C74 24 114-7 137-21Z"  horiz-adv-x="260" vert-adv-y="1000"  />

      
      <glyph glyph-name="uni0142" unicode="&#x0142;" d="M160-21C206 5 248 34 288 68C215 118 211 128 211 164L211 422C242 435 273 446 303 457C307 483 309 516 309 542C278 528 244 512 211 496C211 667 215 759 224 857C193 848 156 833 124 819C110 825 91 832 76 835C82 729 83 638 83 430C55 414 29 399 8 386C5 368 4 348 4 330C29 343 56 356 83 368C82 177 78 114 70 48C97 24 137-7 160-21Z"  horiz-adv-x="313" vert-adv-y="1000"  />

      
      <glyph glyph-name="uni6d" unicode="&#x6d;" d="M657-17C699 7 741 38 777 72C715 114 709 120 709 157C709 239 712 411 718 551C681 582 615 607 564 613C537 601 498 575 463 548C424 582 359 606 306 613C277 600 233 571 196 541C180 567 154 597 128 614C82 591 35 559 0 525C22 508 58 470 72 446C72 292 71 137 67-17C112-5 165 14 205 33C201 191 200 349 200 507C245 505 330 471 330 444C330 292 329 137 325-17C370-5 423 14 463 33C459 190 458 350 458 507C503 505 588 471 588 444C588 314 583 137 577 48C598 25 636-4 657-17Z"  horiz-adv-x="783" vert-adv-y="1000"  />

      
      <glyph glyph-name="uni6e" unicode="&#x6e;" d="M399-17C441 7 483 38 519 72C457 114 451 120 451 157C451 239 454 411 460 551C423 582 357 607 306 613C277 600 233 571 196 541C180 567 154 597 128 614C82 591 35 559 0 525C22 508 58 470 72 446C72 292 71 137 67-17C112-5 165 14 205 33C201 191 200 349 200 507C245 505 330 471 330 444C330 314 325 137 319 48C340 25 378-4 399-17Z"  horiz-adv-x="525" vert-adv-y="1000"  />

      
      <glyph glyph-name="uni0144" unicode="&#x0144;" d="M399-17C441 7 483 38 519 72C457 114 451 120 451 157C451 239 454 411 460 551C423 582 357 607 306 613C277 600 233 571 196 541C180 567 154 597 128 614C82 591 35 559 0 525C22 508 58 470 72 446C72 292 71 137 67-17C112-5 165 14 205 33C201 191 200 349 200 507C245 505 330 471 330 444C330 314 325 137 319 48C340 25 378-4 399-17ZM191 662C207 653 227 646 245 642L415 791C381 807 329 825 296 832Z"  horiz-adv-x="525" vert-adv-y="1000"  />

      
      <glyph glyph-name="unif1" unicode="&#xf1;" d="M399-17C441 7 483 38 519 72C457 114 451 120 451 157C451 239 454 411 460 551C423 582 357 607 306 613C277 600 233 571 196 541C180 567 154 597 128 614C82 591 35 559 0 525C22 508 58 470 72 446C72 292 71 137 67-17C112-5 165 14 205 33C201 191 200 349 200 507C245 505 330 471 330 444C330 314 325 137 319 48C340 25 378-4 399-17ZM91 684C102 676 119 667 132 662C149 675 168 687 187 696C225 687 266 672 308 652C353 682 400 721 434 758C423 766 406 775 393 780C376 767 357 755 338 746C299 755 259 770 217 790C172 760 125 721 91 684Z"  horiz-adv-x="525" vert-adv-y="1000"  />

      
      <glyph glyph-name="uni6f" unicode="&#x6f;" d="M235-17C303 15 392 70 440 110C446 247 445 414 437 547C386 578 319 603 253 617C193 585 115 536 58 493C52 345 53 189 59 41C114 17 178-3 235-17ZM184 512C218 501 247 490 275 476C305 461 310 449 311 421C316 316 318 193 314 83C280 92 248 102 222 112C191 124 186 132 185 172C182 285 181 400 184 512Z"  horiz-adv-x="498" vert-adv-y="1000"  />

      
      <glyph glyph-name="unif3" unicode="&#xf3;" d="M235-17C303 15 392 70 440 110C446 247 445 414 437 547C386 578 319 603 253 617C193 585 115 536 58 493C52 345 53 189 59 41C114 17 178-3 235-17ZM177 662C193 653 213 646 231 642L401 791C367 807 315 825 282 832ZM184 512C218 501 247 490 275 476C305 461 310 449 311 421C316 316 318 193 314 83C280 92 248 102 222 112C191 124 186 132 185 172C182 285 181 400 184 512Z"  horiz-adv-x="498" vert-adv-y="1000"  />

      
      <glyph glyph-name="unif4" unicode="&#xf4;" d="M235-17C303 15 392 70 440 110C446 247 445 414 437 547C386 578 319 603 253 617C193 585 115 536 58 493C52 345 53 189 59 41C114 17 178-3 235-17ZM97 662C112 653 130 646 146 642L249 748L352 642C368 646 386 653 401 662L298 828C267 832 231 832 200 828ZM184 512C218 501 247 490 275 476C305 461 310 449 311 421C316 316 318 193 314 83C280 92 248 102 222 112C191 124 186 132 185 172C182 285 181 400 184 512Z"  horiz-adv-x="498" vert-adv-y="1000"  />

      
      <glyph glyph-name="unif6" unicode="&#xf6;" d="M235-17C303 15 392 70 440 110C446 247 445 414 437 547C386 578 319 603 253 617C193 585 115 536 58 493C52 345 53 189 59 41C114 17 178-3 235-17ZM142 672C161 663 185 656 206 652L276 791C248 803 204 817 177 822ZM184 512C218 501 247 490 275 476C305 461 310 449 311 421C316 316 318 193 314 83C280 92 248 102 222 112C191 124 186 132 185 172C182 285 181 400 184 512ZM292 672C311 663 335 656 356 652L426 791C398 803 354 817 327 822Z"  horiz-adv-x="498" vert-adv-y="1000"  />

      
      <glyph glyph-name="unif2" unicode="&#xf2;" d="M235-17C303 15 392 70 440 110C446 247 445 414 437 547C386 578 319 603 253 617C193 585 115 536 58 493C52 345 53 189 59 41C114 17 178-3 235-17ZM97 791L267 642C285 646 305 653 321 662L216 832C183 825 131 807 97 791ZM184 512C218 501 247 490 275 476C305 461 310 449 311 421C316 316 318 193 314 83C280 92 248 102 222 112C191 124 186 132 185 172C182 285 181 400 184 512Z"  horiz-adv-x="498" vert-adv-y="1000"  />

      
      <glyph glyph-name="unif5" unicode="&#xf5;" d="M235-17C303 15 392 70 440 110C446 247 445 414 437 547C386 578 319 603 253 617C193 585 115 536 58 493C52 345 53 189 59 41C114 17 178-3 235-17ZM77 684C88 676 105 667 118 662C135 675 154 687 173 696C211 687 252 672 294 652C339 682 386 721 420 758C409 766 392 775 379 780C362 767 343 755 324 746C285 755 245 770 203 790C158 760 111 721 77 684ZM184 512C218 501 247 490 275 476C305 461 310 449 311 421C316 316 318 193 314 83C280 92 248 102 222 112C191 124 186 132 185 172C182 285 181 400 184 512Z"  horiz-adv-x="498" vert-adv-y="1000"  />

      
      <glyph glyph-name="uni0153" unicode="&#x0153;" d="M235-20C274-2 319 24 360 50C413 22 470-3 520-19C566 6 608 36 649 70C594 88 530 112 499 128C454 151 451 157 449 204C448 215 448 226 448 238C528 286 623 354 667 400C638 484 590 567 543 618C502 600 460 579 420 557C372 584 312 604 253 617C193 585 115 536 58 493C52 344 53 187 59 38C114 14 178-6 235-20ZM184 512C218 501 247 490 275 476C305 461 310 449 311 421C316 315 318 191 314 80C280 89 248 99 222 109C191 121 186 129 185 169C182 283 181 399 184 512ZM445 310C444 386 445 459 448 518C496 457 537 372 537 354C537 344 521 335 445 310Z"  horiz-adv-x="670" vert-adv-y="1000"  />

      
      <glyph glyph-name="uni70" unicode="&#x70;" d="M269-17C333 12 401 51 459 92C465 239 466 399 461 550C424 581 357 607 306 613C277 600 233 571 196 541C180 568 154 598 128 615C82 591 35 559 0 526C22 509 57 470 72 445C72 342 72 235 71 128C49 115 29 100 12 85C29 74 48 63 70 53C70-22 68-97 67-170C112-165 165-153 205-140L203 1C225-5 247-12 269-17ZM200 507C245 505 328 471 330 444C337 336 338 207 331 72C286 86 242 104 202 124C200 252 200 381 200 507Z"  horiz-adv-x="518" vert-adv-y="1000"  />

      
      <glyph glyph-name="uni71" unicode="&#x71;" d="M309-170C354-165 407-153 447-140C443 83 442 320 442 544C391 577 321 602 253 617C193 585 115 536 58 493C52 341 53 181 59 30C102 11 151-5 195-17C232 0 274 24 312 48C312-25 310-99 309-170ZM184 512C219 501 250 489 278 475C308 460 313 448 314 420C314 308 314 191 313 74C278 83 247 92 222 103C191 116 186 123 185 162C182 278 181 397 184 512Z"  horiz-adv-x="497" vert-adv-y="1000"  />

      
      <glyph glyph-name="uni72" unicode="&#x72;" d="M274 614C250 591 218 554 199 526C182 555 154 590 128 614C82 591 35 559 0 525C22 508 58 470 72 446C72 255 70 144 61 65C87 40 133 10 190-17C235 7 280 38 318 72C214 126 203 136 203 177C202 267 200 364 200 490C242 461 288 422 317 389C339 419 376 485 393 525C363 558 317 593 274 614Z"  horiz-adv-x="397" vert-adv-y="1000"  />

      
      <glyph glyph-name="uni73" unicode="&#x73;" d="M14 79C58 42 123 3 180-17C248 5 332 54 387 100C393 209 374 326 332 393C235 356 205 347 194 347C186 347 182 354 178 373C169 414 168 466 172 513C218 491 268 462 300 439C330 470 367 518 387 553C350 573 286 601 239 615C178 590 101 546 58 512C45 433 42 318 66 255C152 289 194 301 205 301C213 301 219 296 231 269C254 216 266 145 266 76C205 106 139 156 93 204C63 168 31 118 14 79Z"  horiz-adv-x="418" vert-adv-y="1000"  />

      
      <glyph glyph-name="uni015B" unicode="&#x015B;" d="M191 642L361 791C327 807 275 825 242 832L137 662C153 653 173 646 191 642ZM14 79C58 42 123 3 180-17C248 5 332 54 387 100C393 209 374 326 332 393C235 356 205 347 194 347C186 347 182 354 178 373C169 414 168 466 172 513C218 491 268 462 300 439C330 470 367 518 387 553C350 573 286 601 239 615C178 590 101 546 58 512C45 433 42 318 66 255C152 289 194 301 205 301C213 301 219 296 231 269C254 216 266 145 266 76C205 106 139 156 93 204C63 168 31 118 14 79Z"  horiz-adv-x="418" vert-adv-y="1000"  />

      
      <glyph glyph-name="unidf" unicode="&#xdf;" d="M233 423C265 415 307 401 341 388C367 378 371 372 373 344C379 264 382 165 382 77C340 95 294 122 261 150C246 109 232 57 225 17C251 4 299-11 339-17C394 15 459 64 509 112C509 219 506 351 495 451C447 472 383 494 337 507C390 571 465 690 499 766C438 806 350 840 264 859C199 822 126 768 68 714L71 592C42 563 16 529-7 492L72 492L72 406C72 219 71 18 67-170C112-165 165-153 205-140C201 48 200 245 200 433C200 585 201 672 204 755C251 742 300 724 342 704C367 691 369 685 358 660C323 582 277 496 233 423Z"  horiz-adv-x="543" vert-adv-y="1000"  />

      
      <glyph glyph-name="uni74" unicode="&#x74;" d="M330 600L214 600C216 671 219 725 225 779C172 758 125 735 79 706L82 592C53 563 27 529 4 492L83 492L83 406C83 255 81 144 72 65C98 40 144 10 201-17C246 7 291 38 329 72C225 126 215 136 214 177C213 249 212 335 212 433L212 492L310 492C314 523 322 567 330 600Z"  horiz-adv-x="335" vert-adv-y="1000"  />

      
      <glyph glyph-name="uni75" unicode="&#x75;" d="M219-17C248-4 293 26 330 56C345 29 379-2 403-17C446 7 490 38 523 72C457 115 451 121 451 158C451 303 452 465 456 616C411 604 358 585 318 566C322 402 323 227 323 79C277 83 195 125 195 152C195 184 201 444 205 547C188 571 156 598 129 614C83 591 36 559 1 525C23 511 58 477 73 456C73 381 70 187 64 56C101 20 168-10 219-17Z"  horiz-adv-x="524" vert-adv-y="1000"  />

      
      <glyph glyph-name="unifa" unicode="&#xfa;" d="M219-17C248-4 293 26 330 56C345 29 379-2 403-17C446 7 490 38 523 72C457 115 451 121 451 158C451 303 452 465 456 616C411 604 358 585 318 566C322 402 323 227 323 79C277 83 195 125 195 152C195 184 201 444 205 547C188 571 156 598 129 614C83 591 36 559 1 525C23 511 58 477 73 456C73 381 70 187 64 56C101 20 168-10 219-17ZM190 662C206 653 226 646 244 642L414 791C380 807 328 825 295 832Z"  horiz-adv-x="524" vert-adv-y="1000"  />

      
      <glyph glyph-name="unifb" unicode="&#xfb;" d="M219-17C248-4 293 26 330 56C345 29 379-2 403-17C446 7 490 38 523 72C457 115 451 121 451 158C451 303 452 465 456 616C411 604 358 585 318 566C322 402 323 227 323 79C277 83 195 125 195 152C195 184 201 444 205 547C188 571 156 598 129 614C83 591 36 559 1 525C23 511 58 477 73 456C73 381 70 187 64 56C101 20 168-10 219-17ZM110 662C125 653 143 646 159 642L262 748L365 642C381 646 399 653 414 662L311 828C280 832 244 832 213 828Z"  horiz-adv-x="524" vert-adv-y="1000"  />

      
      <glyph glyph-name="unifc" unicode="&#xfc;" d="M219-17C248-4 293 26 330 56C345 29 379-2 403-17C446 7 490 38 523 72C457 115 451 121 451 158C451 303 452 465 456 616C411 604 358 585 318 566C322 402 323 227 323 79C277 83 195 125 195 152C195 184 201 444 205 547C188 571 156 598 129 614C83 591 36 559 1 525C23 511 58 477 73 456C73 381 70 187 64 56C101 20 168-10 219-17ZM155 672C174 663 198 656 219 652L289 791C261 803 217 817 190 822ZM305 672C324 663 348 656 369 652L439 791C411 803 367 817 340 822Z"  horiz-adv-x="524" vert-adv-y="1000"  />

      
      <glyph glyph-name="unif9" unicode="&#xf9;" d="M219-17C248-4 293 26 330 56C345 29 379-2 403-17C446 7 490 38 523 72C457 115 451 121 451 158C451 303 452 465 456 616C411 604 358 585 318 566C322 402 323 227 323 79C277 83 195 125 195 152C195 184 201 444 205 547C188 571 156 598 129 614C83 591 36 559 1 525C23 511 58 477 73 456C73 381 70 187 64 56C101 20 168-10 219-17ZM110 791L280 642C298 646 318 653 334 662L229 832C196 825 144 807 110 791Z"  horiz-adv-x="524" vert-adv-y="1000"  />

      
      <glyph glyph-name="uni76" unicode="&#x76;" d="M246-16C400 64 456 189 456 356C456 438 439 534 405 614C363 596 312 564 275 534C315 442 337 335 337 208C337 166 334 125 324 82C279 85 195 128 195 155C195 187 201 444 205 547C188 571 156 598 129 614C83 591 36 559 1 525C23 510 58 476 73 456C73 381 70 190 64 59C108 20 185-8 246-16Z"  horiz-adv-x="490" vert-adv-y="1000"  />

      
      <glyph glyph-name="uni77" unicode="&#x77;" d="M501-16C655 64 711 189 711 356C711 438 694 534 660 614C618 596 567 564 530 534C570 442 592 335 592 208C592 169 589 130 581 91C535 95 457 127 457 153C457 283 458 415 460 547C443 571 411 598 384 614C338 591 291 559 256 525C277 511 312 477 327 456C329 332 329 206 329 82C285 82 195 127 195 155C195 187 201 444 205 547C188 571 156 598 129 614C83 591 36 559 1 525C23 511 58 477 73 456C73 381 70 190 64 59C101 23 168-7 219-14C246-2 286 24 321 51C365 16 441-9 501-16Z"  horiz-adv-x="745" vert-adv-y="1000"  />

      
      <glyph glyph-name="uni78" unicode="&#x78;" d="M117 617C78 592 41 564 5 531C41 521 73 506 103 487C130 425 153 351 179 272C108 180 46 92 6 20C38 2 88-11 127-16C163 9 196 37 229 70C193 78 155 90 125 104C141 131 167 172 197 220C220 156 246 89 278 26C312 6 346-8 376-16C415 9 452 37 488 70C458 78 424 92 390 112C356 178 330 247 306 315C382 415 450 511 486 582C453 599 404 612 366 617C330 592 297 564 264 531C298 525 337 514 366 500C354 473 325 424 288 368C263 442 241 513 215 573C185 592 153 607 117 617Z"  horiz-adv-x="492" vert-adv-y="1000"  />

      
      <glyph glyph-name="uni79" unicode="&#x79;" d="M268-170C323-139 402-85 446-47C465 148 465 407 451 616C406 604 353 585 313 566C326 433 332 265 330 118C294 127 261 138 233 149C202 161 196 169 196 209C196 291 200 444 206 547C189 571 157 598 130 614C84 591 37 559 2 525C24 511 59 477 74 456C74 385 71 209 66 79C116 56 173 36 225 23C257 42 294 67 330 94C329 34 326-22 322-69C242-55 162-37 82-15C50-50 20-88-8-126C60-145 182-164 268-170Z"  horiz-adv-x="515" vert-adv-y="1000"  />

      
      <glyph glyph-name="uniff" unicode="&#xff;" d="M268-170C323-139 402-85 446-47C465 148 465 407 451 616C406 604 353 585 313 566C326 433 332 265 330 118C294 127 261 138 233 149C202 161 196 169 196 209C196 291 200 444 206 547C189 571 157 598 130 614C84 591 37 559 2 525C24 511 59 477 74 456C74 385 71 209 66 79C116 56 173 36 225 23C257 42 294 67 330 94C329 34 326-22 322-69C242-55 162-37 82-15C50-50 20-88-8-126C60-145 182-164 268-170ZM151 672C170 663 194 656 215 652L285 791C257 803 213 817 186 822ZM301 672C320 663 344 656 365 652L435 791C407 803 363 817 336 822Z"  horiz-adv-x="515" vert-adv-y="1000"  />

      
      <glyph glyph-name="uni7a" unicode="&#x7a;" d="M96 612C63 571 32 526 4 476C72 472 146 463 201 449C173 330 96 175 4 28C75 6 162-7 250-13C283 28 314 73 342 123C273 127 204 133 146 144C232 259 313 437 343 572C278 593 183 607 96 612Z"  horiz-adv-x="350" vert-adv-y="1000"  />

      
      <glyph glyph-name="uni017A" unicode="&#x017A;" d="M96 612C63 571 32 526 4 476C72 472 146 463 201 449C173 330 96 175 4 28C75 6 162-7 250-13C283 28 314 73 342 123C273 127 204 133 146 144C232 259 313 437 343 572C278 593 183 607 96 612ZM138 662C154 653 174 646 192 642L362 791C328 807 276 825 243 832Z"  horiz-adv-x="350" vert-adv-y="1000"  />

      
      <glyph glyph-name="uni017C" unicode="&#x017C;" d="M96 612C63 571 32 526 4 476C72 472 146 463 201 449C173 330 96 175 4 28C75 6 162-7 250-13C283 28 314 73 342 123C273 127 204 133 146 144C232 259 313 437 343 572C278 593 183 607 96 612ZM151 682C176 669 207 658 235 652L315 791C281 807 229 825 196 832Z"  horiz-adv-x="350" vert-adv-y="1000"  />

      
      <glyph glyph-name="uni0410" unicode="&#x0410;" d="M240-13C273 19 304 54 332 93C280 101 229 111 181 122C209 170 238 228 265 293C325 282 385 271 438 258C454 275 469 296 484 318C482 243 479 166 474 116C447 96 421 74 396 51C444 29 508 5 574-14C617 15 657 46 696 82C645 97 595 115 552 132C572 145 592 157 610 171C615 246 616 325 616 419C616 544 610 660 601 760C507 799 377 834 244 855C201 826 161 794 122 759C200 746 276 730 345 710C323 699 303 686 282 672C272 592 252 498 226 403C190 408 156 413 124 416C98 388 74 355 52 320C97 316 146 310 196 303C178 245 157 187 136 133L96 144C63 112 32 77 4 38C72 18 156 0 240-13ZM302 390C339 492 370 601 388 697C406 692 423 686 439 680C465 669 469 664 472 636C480 546 484 457 484 367L484 349C428 364 365 378 302 390Z"  horiz-adv-x="696" vert-adv-y="1000"  />

      
      <glyph glyph-name="uni0411" unicode="&#x0411;" d="M365-14C402 6 436 30 467 57C574 150 626 280 596 429C531 457 438 483 350 495C318 476 287 455 258 433C257 532 259 630 262 730C347 715 430 697 508 676C528 706 552 750 569 790C441 824 281 847 144 855C104 827 65 791 34 757C91 753 148 746 205 738C176 721 148 703 121 684C128 501 128 317 122 134C96 115 71 94 46 71C131 32 247 1 365-14ZM204 153C224 165 244 178 263 192C260 263 259 334 258 404C322 393 384 377 434 359C460 348 465 343 469 315C478 243 472 155 437 90C352 106 271 128 204 153Z"  horiz-adv-x="638" vert-adv-y="1000"  />

      
      <glyph glyph-name="uni0412" unicode="&#x0412;" d="M365-14C402 6 436 30 467 57C574 150 626 280 596 429C558 452 507 475 455 493C562 585 590 692 561 790C507 814 435 837 358 854C324 831 293 807 262 781C227 806 180 832 130 854C87 825 47 793 8 758C50 742 91 723 121 704C128 514 128 324 122 134C96 115 71 94 46 71C131 32 247 1 365-14ZM204 153C224 165 244 178 263 192C256 379 256 565 262 752C312 739 360 724 399 710C425 699 430 694 435 667C445 603 438 532 412 495C374 471 338 446 303 417C351 402 398 382 436 363C461 349 465 343 469 315C478 243 472 155 437 90C352 106 271 128 204 153Z"  horiz-adv-x="638" vert-adv-y="1000"  />

      
      <glyph glyph-name="uni0413" unicode="&#x0413;" d="M44 757C101 753 159 746 215 738C186 721 158 703 131 684C138 497 138 311 132 124C106 105 81 84 56 61C115 36 193 8 274-14C317 15 357 46 396 82C330 100 267 122 213 143C234 155 254 168 273 182C266 364 266 547 272 729C342 717 411 702 476 685C496 715 520 759 537 799C422 828 278 848 154 855C114 827 75 791 44 757Z"  horiz-adv-x="529" vert-adv-y="1000"  />

      
      <glyph glyph-name="uni0414" unicode="&#x0414;" d="M355-14C392 6 426 30 457 57C621 200 662 457 581 725C460 778 294 826 124 855C81 826 41 794 2 759C74 746 145 730 213 713C181 694 151 675 121 654C128 481 128 307 122 134C96 115 71 94 46 71C129 32 240 1 355-14ZM203 153C224 165 244 178 263 192C257 360 256 530 262 699C319 682 372 664 419 645C445 635 450 629 460 603C512 443 501 233 426 91C345 106 268 128 203 153Z"  horiz-adv-x="664" vert-adv-y="1000"  />

      
      <glyph glyph-name="uni0415" unicode="&#x0415;" d="M424-14C467 15 507 46 546 82C398 110 255 149 144 191C171 207 196 223 220 241C223 288 225 337 226 390C297 389 382 384 448 378C474 409 498 447 520 489C446 497 349 501 274 501C257 480 241 457 226 432L226 469C226 569 222 662 215 745C279 725 349 708 416 695C459 724 499 755 538 791C456 808 369 831 294 855C226 818 140 763 79 713C89 614 94 516 94 417C94 324 89 218 82 164C56 145 31 124 6 101C119 55 269 13 424-14Z"  horiz-adv-x="550" vert-adv-y="1000"  />

      
      <glyph glyph-name="uni0401" unicode="&#x0401;" d="M424-14C467 15 507 46 546 82C398 110 255 149 144 191C171 207 196 223 220 241C223 288 225 337 226 390C297 389 382 384 448 378C474 409 498 447 520 489C446 497 349 501 274 501C257 480 241 457 226 432L226 469C226 569 222 662 215 745C279 725 349 708 416 695C459 724 499 755 538 791C456 808 369 831 294 855C226 818 140 763 79 713C89 614 94 516 94 417C94 324 89 218 82 164C56 145 31 124 6 101C119 55 269 13 424-14ZM192 902C211 893 235 886 256 882L326 1021C298 1033 254 1047 227 1052ZM342 902C361 893 385 886 406 882L476 1021C448 1033 404 1047 377 1052Z"  horiz-adv-x="550" vert-adv-y="1000"  />

      
      <glyph glyph-name="uni0416" unicode="&#x0416;" d="M782-14C825 15 865 46 904 82C881 90 855 101 832 116C819 183 823 339 834 412C783 439 714 465 653 484C715 528 798 593 865 650C819 735 771 801 723 854C678 827 636 798 595 765C629 734 662 693 695 644C711 620 710 614 690 594C638 542 579 488 527 445C527 587 529 729 532 870C482 853 435 835 390 814C393 694 395 574 395 454C250 504 216 520 216 561C216 598 224 713 233 809C205 829 170 845 140 854C97 825 57 794 18 758C45 749 75 735 102 718C102 654 96 527 88 448C132 421 191 395 243 377C190 355 128 326 77 300C81 187 81 80 75-17C122 4 170 30 217 62C222 118 223 212 219 298C274 337 339 379 395 412C395 259 394 106 390-47C440-30 487-12 532 9C529 138 527 268 527 398C577 384 633 363 677 343C702 331 706 325 702 297C693 205 694 75 703 22C727 6 757-7 782-14Z"  horiz-adv-x="922" vert-adv-y="1000"  />

      
      <glyph glyph-name="uni0417" unicode="&#x0417;" d="M233-14C270 6 304 30 335 57C442 150 494 280 464 429C422 448 368 467 311 483C428 577 459 689 429 790C354 817 255 840 148 854C104 826 64 794 26 758C114 746 199 728 267 708C293 699 298 694 303 667C313 601 305 528 278 492C258 497 238 502 218 507C174 482 134 454 96 421C171 404 244 381 302 359C328 348 333 343 337 315C346 243 340 156 305 92C228 108 154 133 98 160C61 128 27 93-4 54C59 23 145-2 233-14Z"  horiz-adv-x="506" vert-adv-y="1000"  />

      
      <glyph glyph-name="uni0418" unicode="&#x0418;" d="M567-16C611 8 652 37 689 70C672 76 648 86 626 98C601 112 598 118 598 146L598 506C598 618 600 729 603 840C553 814 506 786 461 754C465 643 466 532 466 420C466 308 465 195 461 83C360 106 261 137 189 169C250 324 274 555 254 711C283 733 311 756 338 781C274 809 198 834 124 855C81 826 41 795 2 759C66 741 131 720 188 697C165 683 142 669 119 653C144 500 127 245 76 69C151 35 251 4 354-16C388 7 420 31 451 57C486 28 534-3 567-16Z"  horiz-adv-x="678" vert-adv-y="1000"  />

      
      <glyph glyph-name="uni0419" unicode="&#x0419;" d="M567-16C611 8 652 37 689 70C672 76 648 86 626 98C601 112 598 118 598 146L598 506C598 618 600 729 603 840C553 814 506 786 461 754C465 643 466 532 466 420C466 308 465 195 461 83C360 106 261 137 189 169C250 324 274 555 254 711C283 733 311 756 338 781C274 809 198 834 124 855C81 826 41 795 2 759C66 741 131 720 188 697C165 683 142 669 119 653C144 500 127 245 76 69C151 35 251 4 354-16C388 7 420 31 451 57C486 28 534-3 567-16ZM228 973C261 916 320 882 385 882C461 882 516 926 555 1003C545 1014 526 1028 511 1037C483 993 451 978 418 978C381 978 348 998 317 1046C287 1026 252 998 228 973Z"  horiz-adv-x="678" vert-adv-y="1000"  />

      
      <glyph glyph-name="uni041A" unicode="&#x041A;" d="M263 790C228 814 180 837 130 854C87 825 47 793 8 758C50 742 91 723 121 704C128 507 128 311 122 114C96 95 71 74 46 51C99 29 171 5 244-14C287 15 327 46 366 82C308 97 251 115 204 133C224 145 244 158 263 172C261 243 259 313 258 384C325 366 404 336 457 309C444 224 444 78 454 22C478 6 508-7 533-14C576 15 616 46 655 82C632 90 606 101 583 116C570 181 574 331 585 402C528 432 451 461 385 480C450 550 549 667 626 770C570 805 512 832 454 854C408 828 366 799 326 765C377 746 428 722 479 693C409 595 326 488 258 411C257 537 259 664 263 790Z"  horiz-adv-x="673" vert-adv-y="1000"  />

      
      <glyph glyph-name="uni041B" unicode="&#x041B;" d="M564-14C607 15 647 46 686 82C635 97 585 115 542 132C562 145 582 157 600 171C605 246 606 325 606 419C606 544 600 660 591 760C497 799 367 834 234 855C191 826 151 794 112 759C185 747 257 732 322 714C305 704 290 694 275 683C251 520 204 324 133 146C100 157 65 171 42 185C29 142 14 82 4 28C45 7 105-10 163-17C252 166 324 466 348 706C377 698 404 689 429 680C455 669 459 664 462 636C470 546 474 457 474 367C474 278 470 177 464 116C437 96 411 74 386 51C434 29 498 5 564-14Z"  horiz-adv-x="686" vert-adv-y="1000"  />

      
      <glyph glyph-name="uni041C" unicode="&#x041C;" d="M236-14C279 15 319 46 358 82C300 97 243 115 196 133C216 145 236 158 255 172C253 234 251 295 251 357C251 536 281 651 334 731C384 723 440 699 440 675L440 314C440 206 438 96 434-12C484 3 531 20 576 39C573 145 571 251 571 357C571 535 601 651 654 730C709 720 786 686 780 655C745 466 745 194 759 48C788 25 840-4 869-17C912 7 956 38 993 72C904 114 900 120 895 157C879 264 877 475 910 664C932 680 961 702 982 722C911 784 783 843 686 854C633 793 590 717 566 651C568 695 574 739 581 783C530 814 436 846 366 854C313 793 270 717 246 651C246 699 251 763 255 790C221 814 175 837 127 854C84 825 44 793 5 758C47 742 88 723 118 704C118 508 117 310 114 114C88 94 63 74 38 51C91 29 163 5 236-14Z"  horiz-adv-x="987" vert-adv-y="1000"  />

      
      <glyph glyph-name="uni041D" unicode="&#x041D;" d="M124 855C81 826 41 795 2 759C65 741 130 720 187 697C164 684 142 669 121 654C123 602 124 550 125 498L84 501C58 473 34 440 12 405C48 403 86 401 126 398C127 304 125 209 122 114C96 95 71 74 46 51C94 29 158 5 224-14C267 15 307 46 346 82C295 97 245 115 202 132C223 145 243 158 263 172C260 244 259 315 258 387C328 380 397 372 458 363C471 377 484 394 496 411C496 291 495 169 491 49C525 23 568-4 597-16C641 8 682 37 719 70C702 76 678 86 656 98C631 112 628 118 628 146L628 506C628 618 630 729 633 840C583 814 536 786 491 754C495 654 496 554 496 453C423 466 339 478 258 486C258 564 260 641 262 718C288 737 313 758 338 781C274 809 198 834 124 855Z"  horiz-adv-x="708" vert-adv-y="1000"  />

      
      <glyph glyph-name="uni041E" unicode="&#x041E;" d="M283 855C215 823 153 789 96 746C67 646 53 500 53 333C53 245 58 155 68 73C144 36 248 3 355-17C423 15 485 49 542 92C571 192 585 338 585 505C585 593 580 683 570 765C494 802 390 835 283 855ZM185 412C185 530 193 648 207 749C281 732 351 709 409 686C434 675 438 669 442 641C449 572 453 499 453 426C453 308 445 191 431 89C357 107 287 129 229 152C204 163 200 169 196 197C189 266 185 339 185 412Z"  horiz-adv-x="638" vert-adv-y="1000"  />

      
      <glyph glyph-name="uni041F" unicode="&#x041F;" d="M236-14C279 15 319 46 358 82C300 97 243 115 196 133C216 145 236 158 255 172C253 234 251 295 251 357C251 536 281 651 334 731C400 722 496 687 490 655C455 466 455 194 469 48C498 25 550-4 579-17C622 7 666 38 703 72C614 114 610 120 605 157C589 264 587 475 620 664C642 680 671 702 692 722C614 784 473 843 366 854C313 793 270 717 246 651C246 699 251 763 255 790C221 814 175 837 127 854C84 825 44 793 5 758C47 742 88 723 118 704C118 508 117 310 114 114C88 94 63 74 38 51C91 29 163 5 236-14Z"  horiz-adv-x="697" vert-adv-y="1000"  />

      
      <glyph glyph-name="uni0420" unicode="&#x0420;" d="M451 664C506 511 499 321 447 221C380 234 316 252 258 272C257 432 259 592 262 752C316 738 367 722 409 706C435 696 440 690 451 664ZM8 758C50 742 91 723 121 704C125 562 126 420 126 277C99 257 72 235 46 211C70 199 97 187 126 177C125 84 123-9 121-102C171-87 218-70 263-51L259 137C297 129 336 121 375 116C412 136 446 160 477 187C610 303 650 584 571 786C514 812 438 836 358 854C324 831 293 807 262 781C227 806 180 832 130 854C87 825 47 793 8 758Z"  horiz-adv-x="645" vert-adv-y="1000"  />

      
      <glyph glyph-name="uni0421" unicode="&#x0421;" d="M273 855C205 823 143 789 86 746C57 646 43 500 43 333C43 248 48 162 58 83C137 42 244 5 355-17C398 12 438 44 477 79C383 100 291 130 219 162C194 173 190 179 186 207C179 273 175 342 175 412C175 528 183 644 196 744C259 724 326 708 391 695C434 724 474 755 513 791C432 808 347 831 273 855Z"  horiz-adv-x="487" vert-adv-y="1000"  />

      
      <glyph glyph-name="uni0422" unicode="&#x0422;" d="M53 497C77 509 121 542 148 571C125 630 111 694 104 751C181 742 258 731 333 717C305 700 277 683 251 664C258 484 258 304 252 124C226 105 201 84 176 61C235 36 313 8 394-14C437 15 477 46 516 82C450 100 387 122 333 143C354 155 374 168 393 182C387 356 386 531 391 705C445 693 497 680 546 665C566 695 590 739 607 779C471 818 301 845 154 855C102 819 51 773 12 729C14 652 32 553 53 497Z"  horiz-adv-x="599" vert-adv-y="1000"  />

      
      <glyph glyph-name="uni0423" unicode="&#x0423;" d="M354-123C424-92 497-48 550-3C607 251 621 623 591 854C546 834 491 798 451 764C469 617 474 417 461 238C361 260 265 290 192 321C250 434 273 598 254 712C283 733 311 756 338 781C274 809 198 834 124 855C81 826 41 795 2 759C66 741 131 720 188 697C165 683 142 669 119 653C144 540 127 352 76 222C154 188 257 157 364 137C397 159 429 183 459 209C452 127 442 50 427-15C332 23 232 53 148 68C105 39 65 8 26-28C125-46 243-81 354-123Z"  horiz-adv-x="651" vert-adv-y="1000"  />

      
      <glyph glyph-name="uni0424" unicode="&#x0424;" d="M487 132C487 145 486 158 486 171C513 166 541 161 569 158C606 178 640 202 671 229C789 332 834 560 765 728C713 751 644 773 572 789C541 768 512 746 484 722L487 857C437 842 390 825 345 806L346 776C319 781 291 786 263 789C226 769 192 745 161 718C43 615-2 387 67 219C119 196 188 174 260 158C291 179 320 201 349 225L346 74C320 55 295 34 270 11C318-11 382-35 448-54C491-25 531 6 570 42C519 57 469 75 426 92C447 105 467 118 487 132ZM187 341C143 460 149 604 191 684C246 674 300 660 349 644C351 517 351 389 349 262C305 273 264 286 229 299C203 310 197 315 187 341ZM483 303C481 430 481 558 483 685C527 674 568 661 603 648C629 637 635 632 645 606C689 487 683 343 641 263C586 273 532 287 483 303Z"  horiz-adv-x="832" vert-adv-y="1000"  />

      
      <glyph glyph-name="uni0425" unicode="&#x0425;" d="M109 855C70 827 32 795-4 757C45 740 90 720 130 697C172 611 208 508 250 400C149 271 60 147 1 45C53 16 132-4 193-12C236 16 274 48 313 86C255 98 193 117 145 140C171 187 217 259 273 339C311 242 355 142 410 46C456 20 503 1 544-12C583 16 621 48 658 86C616 100 569 119 524 144C472 234 430 328 393 419C501 561 599 699 651 799C599 827 521 847 461 855C418 827 380 795 341 757C396 747 459 729 508 707C484 659 431 575 370 480C325 595 287 704 243 794C203 818 159 838 109 855Z"  horiz-adv-x="654" vert-adv-y="1000"  />

      
      <glyph glyph-name="uni0427" unicode="&#x0427;" d="M573 840C523 814 476 786 431 754C435 635 436 516 436 396C353 416 273 442 212 469C249 541 263 640 254 712C283 733 311 756 338 781C274 809 198 834 124 855C81 826 41 795 2 759C66 741 131 720 188 697C165 683 142 669 119 653C134 579 127 456 96 371C160 341 246 314 334 296C370 320 403 346 436 374C436 287 434 201 432 114C406 95 381 74 356 51C404 29 468 5 534-14C577 15 617 46 656 82C605 97 555 115 512 132C533 145 553 158 573 172C566 395 566 619 573 840Z"  horiz-adv-x="645" vert-adv-y="1000"  />

      
      <glyph glyph-name="uni0426" unicode="&#x0426;" d="M567-16C611 8 652 37 689 70C672 76 648 86 626 98C601 112 598 118 598 146L598 506C598 618 600 729 603 840C553 814 506 786 461 754C465 643 466 532 466 420C466 308 465 195 461 83C360 106 261 137 189 169C250 324 274 555 254 711C283 733 311 756 338 781C274 809 198 834 124 855C81 826 41 795 2 759C66 741 131 720 188 697C165 683 142 669 119 653C144 500 127 245 76 69C151 35 251 4 354-16C388 7 420 31 451 57C486 28 534-3 567-16ZM368-104C436-110 535-135 620-170C638-144 659-107 674-78C598-47 511-30 432-25C409-48 387-75 368-104Z"  horiz-adv-x="678" vert-adv-y="1000"  />

      
      <glyph glyph-name="uni0428" unicode="&#x0428;" d="M484 825C441 796 401 765 362 729C408 716 455 700 497 682C475 669 453 654 431 639C435 554 436 466 436 380C436 282 435 182 431 84C341 106 253 137 189 169C250 323 274 555 254 711C283 733 311 756 338 781C274 809 198 834 124 855C81 826 41 795 2 759C66 741 131 720 188 697C165 683 142 669 119 653C144 500 127 245 76 69C143 35 232 4 324-16C358 7 391 31 422 59C478 20 571-8 644-16C678 7 710 31 742 58C777 30 825-1 857-14C901 10 942 39 979 72C962 78 938 88 916 100C891 114 888 120 888 148L888 506C888 618 890 729 893 840C843 814 796 786 751 754C755 643 756 532 756 420C756 307 755 196 751 83C634 109 568 133 568 164L568 436C568 525 570 615 572 703C598 722 623 743 648 766C599 788 541 809 484 825Z"  horiz-adv-x="968" vert-adv-y="1000"  />

      
      <glyph glyph-name="uni0429" unicode="&#x0429;" d="M484 825C441 796 401 765 362 729C408 716 455 700 497 682C475 669 453 654 431 639C435 554 436 466 436 380C436 282 435 182 431 84C341 106 253 137 189 169C250 323 274 555 254 711C283 733 311 756 338 781C274 809 198 834 124 855C81 826 41 795 2 759C66 741 131 720 188 697C165 683 142 669 119 653C144 500 127 245 76 69C143 35 232 4 324-16C358 7 391 31 422 59C478 20 571-8 644-16C678 7 710 31 742 58C777 30 825-1 857-14C901 10 942 39 979 72C962 78 938 88 916 100C891 114 888 120 888 148L888 506C888 618 890 729 893 840C843 814 796 786 751 754C755 643 756 532 756 420C756 307 755 196 751 83C634 109 568 133 568 164L568 436C568 525 570 615 572 703C598 722 623 743 648 766C599 788 541 809 484 825ZM658-104C726-110 825-135 910-170C928-144 949-107 964-78C888-47 801-30 722-25C699-48 677-75 658-104Z"  horiz-adv-x="968" vert-adv-y="1000"  />

      
      <glyph glyph-name="uni042C" unicode="&#x042C;" d="M359-14C396 6 430 30 461 57C574 155 620 310 590 479C525 507 432 533 344 545C312 526 281 505 252 482C252 582 253 681 257 780C222 806 174 832 124 854C81 825 41 793 2 758C44 742 85 723 115 704C122 514 122 324 116 134C90 115 65 94 40 71C125 32 241 1 359-14ZM198 153C218 165 238 178 257 192C254 279 252 367 252 454C316 443 378 427 428 409C454 398 459 393 462 365C472 278 466 169 429 91C345 106 264 128 198 153Z"  horiz-adv-x="633" vert-adv-y="1000"  />

      
      <glyph glyph-name="uni042B" unicode="&#x042B;" d="M329-14C366 6 400 30 431 57C545 156 590 316 560 489C503 513 421 535 344 545C312 526 281 505 252 482C252 582 253 681 257 780C222 806 174 832 124 854C81 825 41 793 2 758C44 742 85 723 115 704C122 512 122 321 116 129C90 110 65 89 40 66C117 29 222 0 329-14ZM197 147C218 160 238 173 257 187C254 276 252 365 252 454C305 445 356 432 398 418C424 408 429 403 432 375C442 285 437 173 399 91C326 106 256 125 197 147ZM511 759C574 741 639 720 696 697C673 684 651 669 630 654C637 474 637 291 631 111C605 92 580 71 555 48C603 26 667 2 733-17C776 12 816 43 855 79C804 94 754 112 711 129C732 142 752 155 772 169C765 352 765 537 771 718C797 737 822 758 847 781C783 809 707 834 633 855C590 826 550 795 511 759Z"  horiz-adv-x="844" vert-adv-y="1000"  />

      
      <glyph glyph-name="uni042A" unicode="&#x042A;" d="M461-14C498 6 532 30 563 57C676 155 722 310 692 479C627 507 534 533 446 545C414 526 383 505 354 483C354 561 355 639 358 718C384 737 409 758 434 781C340 811 229 836 120 855C77 826 37 795-2 759C95 742 193 721 279 695C258 682 237 668 217 654C224 481 224 307 218 134C192 115 167 94 142 71C227 32 343 1 461-14ZM300 153C320 165 340 178 359 192C356 280 354 367 354 454C418 443 480 427 530 409C556 398 561 393 564 365C574 278 568 169 531 91C447 106 366 128 300 153Z"  horiz-adv-x="735" vert-adv-y="1000"  />

      
      <glyph glyph-name="uni042D" unicode="&#x042D;" d="M305 378C321 397 336 419 351 443L351 425C351 308 343 191 329 90C243 107 160 132 98 160C62 128 28 93-4 54C64 23 158-2 253-14C321 18 383 52 440 95C469 194 483 339 483 504C483 599 477 696 464 784C381 813 269 839 151 854C108 825 68 793 29 758C128 744 225 723 301 701C328 693 333 688 337 660C343 606 348 549 350 492C280 498 197 501 131 501C105 469 81 431 59 390C134 390 231 385 305 378Z"  horiz-adv-x="536" vert-adv-y="1000"  />

      
      <glyph glyph-name="uni042E" unicode="&#x042E;" d="M124 855C81 826 41 795 2 759C65 741 130 720 187 697C164 684 142 669 121 654C128 474 128 291 122 111C96 92 71 71 46 48C94 26 158 2 224-17C267 12 307 43 346 79C295 94 245 112 202 129C223 142 243 155 263 169C260 242 259 314 258 387C303 385 349 382 388 379L388 333C388 240 393 144 403 57C468 26 558 0 650-17C718 15 780 49 837 92C866 192 880 338 880 505C880 598 875 694 865 781C800 812 710 838 618 855C550 823 488 789 431 746C412 680 399 594 393 495C348 498 301 500 258 501C258 574 260 646 262 718C288 737 313 758 338 781C274 809 198 834 124 855ZM520 412C520 530 528 648 542 750C601 736 657 719 703 701C729 691 733 685 737 657C744 583 748 504 748 426C748 308 740 190 726 89C667 103 611 120 565 137C539 147 535 153 531 181C524 255 520 334 520 412Z"  horiz-adv-x="933" vert-adv-y="1000"  />

      
      <glyph glyph-name="uni042F" unicode="&#x042F;" d="M472-16C516 8 557 37 594 70C577 76 553 86 531 98C506 112 503 118 503 146L503 506C503 576 505 646 507 715C534 734 559 755 583 777C483 814 379 841 273 857C236 837 202 813 171 786C62 690 8 508 77 367C134 342 217 318 286 302C254 249 213 191 162 136C119 149 73 168 42 185C29 142 14 82 4 28C45 7 105-10 163-17C244 82 322 232 371 371C371 264 369 156 366 49C400 23 443-4 472-16ZM195 478C154 574 160 687 198 752C281 736 361 712 428 685C407 672 386 658 366 644C370 570 371 495 371 420L371 406C323 416 278 428 239 439C213 448 207 453 195 478Z"  horiz-adv-x="583" vert-adv-y="1000"  />

      
      <glyph glyph-name="uni0430" unicode="&#x0430;" d="M16 252C23 171 55 58 97-12C185 19 244 62 284 110C286 82 289 54 293 31C310 15 341-3 364-12C409 14 451 43 492 77C479 83 462 92 447 101C424 118 420 124 417 152C403 267 411 442 420 541C374 577 297 609 230 618C166 585 71 514 27 466C47 411 81 351 118 310C81 291 45 271 16 252ZM144 519C206 515 286 477 286 446C286 417 281 315 281 197C264 154 237 114 212 89C178 143 156 229 156 266C156 281 166 290 230 331C186 395 156 460 144 519Z"  horiz-adv-x="482" vert-adv-y="1000"  />

      
      <glyph glyph-name="uni0431" unicode="&#x0431;" d="M353 689C385 717 420 753 447 786C396 818 323 844 252 859C187 822 114 768 56 714C59 610 60 491 60 406C60 186 55 114 47 45C106 18 178-4 241-20C309 12 398 67 446 107C452 228 451 385 443 497C400 523 344 545 289 557C258 542 220 519 188 498C188 611 189 685 192 755C250 739 313 714 353 689ZM188 169L188 433L188 461C219 452 253 440 281 426C311 411 315 399 317 371C322 281 324 175 321 80C285 89 252 99 225 109C194 121 188 129 188 169Z"  horiz-adv-x="504" vert-adv-y="1000"  />

      
      <glyph glyph-name="uni0432" unicode="&#x0432;" d="M443 347C402 363 356 378 322 388C364 425 421 491 447 535C396 571 323 601 252 618C187 581 114 527 56 473C59 396 60 309 60 246C60 127 56 85 48 48C106 21 178-1 241-17C309 15 398 70 446 110C452 183 451 279 443 347ZM188 172L188 273C188 387 189 452 191 514C235 500 280 481 317 461C288 406 249 344 211 293C234 287 263 278 290 269C316 259 320 254 321 226C323 179 323 129 321 83C285 92 252 102 225 112C194 124 188 132 188 172Z"  horiz-adv-x="504" vert-adv-y="1000"  />

      
      <glyph glyph-name="uni0433" unicode="&#x0433;" d="M10 88C54 51 122 5 161-15C204 8 249 39 286 72C247 95 204 125 171 155C151 174 149 181 158 207C191 302 237 425 278 507C245 545 184 588 132 614C86 591 39 559 4 525C38 507 89 470 123 438C143 419 145 412 137 385C107 293 60 180 10 88Z"  horiz-adv-x="290" vert-adv-y="1000"  />

      
      <glyph glyph-name="uni0434" unicode="&#x0434;" d="M60 40C108 19 172-2 236-18C291 5 379 59 435 100C447 213 448 424 437 560C366 639 251 729 114 822C79 799 34 757 10 728C91 670 152 626 197 591C144 564 94 533 58 504C52 390 53 196 60 40ZM184 506C186 527 194 540 232 564C256 544 273 529 284 517C304 495 310 483 312 454C318 376 317 195 314 80C200 114 188 124 186 156C179 246 180 446 184 506Z"  horiz-adv-x="499" vert-adv-y="1000"  />

      
      <glyph glyph-name="uni0435" unicode="&#x0435;" d="M257-17C303 8 345 38 386 72C331 90 267 114 236 130C191 153 188 159 186 206L185 238C265 286 360 354 404 400C375 484 327 567 280 618C205 585 129 543 60 499C51 393 51 252 62 72C123 36 195 3 257-17ZM182 310C181 386 182 459 185 518C233 457 274 372 274 354C274 344 258 335 182 310Z"  horiz-adv-x="407" vert-adv-y="1000"  />

      
      <glyph glyph-name="uni0451" unicode="&#x0451;" d="M257-17C303 8 345 38 386 72C331 90 267 114 236 130C191 153 188 159 186 206L185 238C265 286 360 354 404 400C375 484 327 567 280 618C205 585 129 543 60 499C51 393 51 252 62 72C123 36 195 3 257-17ZM97 672C116 663 140 656 161 652L231 791C203 803 159 817 132 822ZM182 310C181 386 182 459 185 518C233 457 274 372 274 354C274 344 258 335 182 310ZM247 672C266 663 290 656 311 652L381 791C353 803 309 817 282 822Z"  horiz-adv-x="407" vert-adv-y="1000"  />

      
      <glyph glyph-name="uni0436" unicode="&#x0436;" d="M289 596C292 519 293 436 294 353C214 382 180 404 180 426C180 442 190 504 205 567C181 588 152 606 129 616C82 591 39 561 1 527C27 513 54 490 69 472C69 454 63 395 52 350C85 328 140 302 190 283C124 251 80 226 50 204C53 135 53 46 48-17C93-1 141 20 179 44C183 104 184 172 184 218C184 232 208 256 294 317C295 193 293 68 289-47C334-35 387-16 427 3C424 105 422 204 422 304C504 283 539 265 539 249C539 237 523 101 534 16C552 3 573-10 590-17C637 8 680 38 718 72C669 98 663 104 660 127C656 157 656 251 667 325C637 346 581 369 528 384C604 435 654 476 689 511C663 549 622 591 586 616C541 593 502 566 465 531C512 491 529 472 529 457C529 440 501 407 422 337C422 440 424 542 427 646C382 634 329 615 289 596Z"  horiz-adv-x="720" vert-adv-y="1000"  />

      
      <glyph glyph-name="uni0437" unicode="&#x0437;" d="M342 336C303 352 261 363 221 369C269 421 325 501 356 562C289 588 189 606 99 612C66 574 35 532 7 486C74 482 148 473 205 461C172 393 126 313 89 257C120 254 152 249 184 242C211 236 215 231 216 203C217 161 217 117 215 79C174 91 129 106 89 123C62 93 26 46 4 12C54-1 118-11 180-17C234 8 298 44 342 76C347 149 346 252 342 336Z"  horiz-adv-x="390" vert-adv-y="1000"  />

      
      <glyph glyph-name="uni0438" unicode="&#x0438;" d="M219-17C248-4 293 26 330 56C345 29 379-2 403-17C446 7 490 38 523 72C457 115 451 121 451 158C451 303 452 465 456 616C411 604 358 585 318 566C322 402 323 227 323 79C277 83 195 125 195 152C195 184 201 444 205 547C188 571 156 598 129 614C83 591 36 559 1 525C23 511 58 477 73 456C73 381 70 187 64 56C101 20 168-10 219-17Z"  horiz-adv-x="524" vert-adv-y="1000"  />

      
      <glyph glyph-name="uni0439" unicode="&#x0439;" d="M219-17C248-4 293 26 330 56C345 29 379-2 403-17C446 7 490 38 523 72C457 115 451 121 451 158C451 303 452 465 456 616C411 604 358 585 318 566C322 402 323 227 323 79C277 83 195 125 195 152C195 184 201 444 205 547C188 571 156 598 129 614C83 591 36 559 1 525C23 511 58 477 73 456C73 381 70 187 64 56C101 20 168-10 219-17ZM101 743C134 686 193 652 258 652C334 652 389 696 428 773C418 784 399 798 384 807C356 763 324 748 291 748C254 748 221 768 190 816C160 796 125 768 101 743Z"  horiz-adv-x="524" vert-adv-y="1000"  />

      
      <glyph glyph-name="uni043A" unicode="&#x043A;" d="M67-17C112-5 165 14 205 33C203 123 202 214 201 304C282 282 317 265 317 249C317 237 301 97 312 12C330-1 351-14 368-21C415 4 458 34 496 68C447 94 441 100 438 123C434 153 434 251 445 325C415 346 359 369 306 384C382 435 432 476 467 511C441 549 400 591 364 616C319 593 280 566 243 531C290 491 307 472 307 457C307 440 279 407 201 338L200 535C184 562 156 596 128 614C82 591 35 559 0 525C22 508 58 470 72 446C72 292 71 137 67-17Z"  horiz-adv-x="498" vert-adv-y="1000"  />

      
      <glyph glyph-name="uni043B" unicode="&#x043B;" d="M385-17C427 7 469 38 505 72C443 114 437 120 437 157C437 237 440 404 446 540C373 571 272 598 171 615C128 586 88 554 49 519C105 510 160 498 210 484C197 475 185 465 174 455C163 364 142 249 111 148C85 158 60 169 42 180C29 138 14 80 4 28C40 7 92-10 143-17C189 108 227 309 241 475C257 470 272 465 286 460C312 449 316 444 316 416C315 289 311 131 305 48C326 25 364-4 385-17Z"  horiz-adv-x="511" vert-adv-y="1000"  />

      
      <glyph glyph-name="uni043C" unicode="&#x043C;" d="M164 455C155 364 137 249 110 149C84 158 60 169 42 180C29 138 14 80 4 28C40 7 92-10 143-17C184 107 219 308 231 475C246 470 260 465 274 460C300 449 304 444 304 416C304 273 303 127 299-17C344-5 397 14 437 33C434 80 432 137 432 173C432 304 452 408 483 483C520 474 558 460 556 441C546 341 543 177 545 48C566 25 604-4 625-17C667 7 709 38 745 72C683 114 679 120 677 157C672 240 673 363 680 475C694 490 707 505 718 521C667 560 574 593 502 603C469 552 435 481 409 407C410 463 413 505 419 547C352 575 261 599 171 615C128 586 88 554 49 519C102 510 154 498 200 485C188 475 176 465 164 455Z"  horiz-adv-x="751" vert-adv-y="1000"  />

      
      <glyph glyph-name="uni043D" unicode="&#x043D;" d="M67-17C112-5 165 14 205 33C203 109 202 186 201 262L322 262L323 79C323 50 372 2 403-17C446 7 490 38 523 72C457 115 451 121 451 158C451 303 452 465 456 616C411 604 358 585 318 566C320 498 321 429 322 360L200 360L200 535C184 562 156 596 128 614C82 591 35 559 0 525C22 508 58 470 72 446C72 292 71 137 67-17Z"  horiz-adv-x="524" vert-adv-y="1000"  />

      
      <glyph glyph-name="uni043E" unicode="&#x043E;" d="M235-17C303 15 392 70 440 110C446 247 445 414 437 547C386 578 319 603 253 617C193 585 115 536 58 493C52 345 53 189 59 41C114 17 178-3 235-17ZM184 512C218 501 247 490 275 476C305 461 310 449 311 421C316 316 318 193 314 83C280 92 248 102 222 112C191 124 186 132 185 172C182 285 181 400 184 512Z"  horiz-adv-x="498" vert-adv-y="1000"  />

      
      <glyph glyph-name="uni043F" unicode="&#x043F;" d="M399-17C441 7 483 38 519 72C457 114 451 120 451 157C451 239 454 411 460 551C423 582 357 607 306 613C277 600 233 571 196 541C180 567 154 597 128 614C82 591 35 559 0 525C22 508 58 470 72 446C72 292 71 137 67-17C112-5 165 14 205 33C201 191 200 349 200 507C245 505 330 471 330 444C330 314 325 137 319 48C340 25 378-4 399-17Z"  horiz-adv-x="525" vert-adv-y="1000"  />

      
      <glyph glyph-name="uni0440" unicode="&#x0440;" d="M269-17C333 12 401 51 459 92C465 239 466 399 461 550C424 581 357 607 306 613C277 600 233 571 196 541C180 568 154 598 128 615C82 591 35 559 0 526C22 509 57 470 72 445C72 342 72 235 71 128C49 115 29 100 12 85C29 74 48 63 70 53C70-22 68-97 67-170C112-165 165-153 205-140L203 1C225-5 247-12 269-17ZM200 507C245 505 328 471 330 444C337 336 338 207 331 72C286 86 242 104 202 124C200 252 200 381 200 507Z"  horiz-adv-x="518" vert-adv-y="1000"  />

      
      <glyph glyph-name="uni0441" unicode="&#x0441;" d="M237-12C283 14 325 43 366 77C311 99 264 120 236 135C191 159 188 164 186 211C181 310 180 415 184 498C220 479 255 457 285 433C313 460 351 510 374 550C343 576 291 602 240 618C179 585 117 543 60 499C51 395 51 254 62 76C122 38 182 8 237-12Z"  horiz-adv-x="378" vert-adv-y="1000"  />

      
      <glyph glyph-name="uni0442" unicode="&#x0442;" d="M657-17C699 7 741 38 777 72C715 114 709 120 709 157C709 239 712 411 718 551C681 582 615 607 564 613C537 601 498 575 463 548C424 582 359 606 306 613C277 600 233 571 196 541C180 567 154 597 128 614C82 591 35 559 0 525C22 508 58 470 72 446C72 292 71 137 67-17C112-5 165 14 205 33C201 191 200 349 200 507C245 505 330 471 330 444C330 292 329 137 325-17C370-5 423 14 463 33C459 190 458 350 458 507C503 505 588 471 588 444C588 314 583 137 577 48C598 25 636-4 657-17Z"  horiz-adv-x="783" vert-adv-y="1000"  />

      
      <glyph glyph-name="uni0443" unicode="&#x0443;" d="M268-170C323-139 402-85 446-47C465 148 465 407 451 616C406 604 353 585 313 566C326 433 332 265 330 118C294 127 261 138 233 149C202 161 196 169 196 209C196 291 200 444 206 547C189 571 157 598 130 614C84 591 37 559 2 525C24 511 59 477 74 456C74 385 71 209 66 79C116 56 173 36 225 23C257 42 294 67 330 94C329 34 326-22 322-69C242-55 162-37 82-15C50-50 20-88-8-126C60-145 182-164 268-170Z"  horiz-adv-x="515" vert-adv-y="1000"  />

      
      </font>
</defs>
</svg>
