<svg width="273" height="38" viewBox="0 0 273 38" fill="none" xmlns="http://www.w3.org/2000/svg">
<path d="M18.5859 11.992C21.3579 17.968 21.3579 24.232 15.7779 29.056C14.6619 30.028 13.4379 30.892 12.1059 31.612C8.64994 29.488 4.29394 27.436 0.945938 26.536C1.98994 25.456 3.75394 24.088 5.33794 23.116C8.50594 24.052 12.1059 25.924 14.8419 27.832C15.8139 24.196 15.7419 20.38 14.6259 17.248C14.2299 16.312 14.0499 16.168 13.0419 16.312C10.0179 16.672 6.70594 17.248 3.53794 17.896C0.945938 12.604 1.70194 7.276 6.88594 2.776C8.00194 1.804 9.22594 0.939999 10.5579 0.219999C13.2939 1.588 16.5339 2.812 19.5219 3.64C18.1179 4.936 16.6779 6.052 15.1299 7.096C12.8259 6.556 10.1619 5.584 7.64194 4.396C6.20194 7.06 6.38194 10.624 7.71394 13.504C8.18194 14.368 8.39794 14.476 9.36994 14.296C11.9619 13.792 15.2019 13.036 18.5859 11.992ZM33.4801 15.016C33.4081 14.116 30.3841 12.82 28.7641 12.748V13.612C28.7641 19.012 28.8001 24.412 28.9441 29.812C27.5041 30.496 25.5961 31.18 23.9761 31.612C24.1201 26.428 24.1561 21.244 24.1561 16.06C24.1561 8.176 24.1201 4.828 23.9041 0.939999C24.4441 1.048 25.1281 1.3 25.6321 1.516C26.7841 1.012 28.1161 0.471998 29.2321 0.147998C28.9441 3.316 28.8001 6.34 28.7641 11.416C30.0601 10.372 31.5721 9.364 32.5801 8.932C34.3441 9.148 36.5761 9.976 37.9441 11.02C38.1601 13.504 38.2321 16.744 38.2321 19.264C38.2321 23.548 38.0521 28.084 37.6561 31.972C36.2161 33.232 34.1281 34.636 32.6881 35.428C33.2281 32.044 33.6241 26.824 33.6241 20.596C33.6241 18.58 33.5881 16.096 33.4801 15.016ZM40.7479 21.928C41.7919 21.244 43.0879 20.524 44.4199 19.84C43.0879 18.364 41.8639 16.204 41.1439 14.224C42.7279 12.496 46.1479 9.94 48.4519 8.752C50.8639 9.076 53.6359 10.228 55.2919 11.524C54.9679 15.088 54.6799 21.388 55.1839 25.528C55.2919 26.536 55.4359 26.752 56.2639 27.364C56.8039 27.688 57.4159 28.012 57.8839 28.228C56.4079 29.452 54.8959 30.496 53.2759 31.432C52.4479 31.108 51.3319 30.46 50.7199 29.884C50.5759 29.056 50.4679 28.048 50.3959 27.04C48.9559 28.768 46.8319 30.316 43.6639 31.432C42.1519 28.912 40.9999 24.844 40.7479 21.928ZM45.3559 12.316C45.7879 14.44 46.8679 16.78 48.4519 19.084C46.1479 20.56 45.7879 20.884 45.7879 21.424C45.7879 22.756 46.5799 25.852 47.8039 27.796C48.7039 26.896 49.6759 25.456 50.2879 23.908C50.2879 19.66 50.4679 15.988 50.4679 14.944C50.4679 13.828 47.5879 12.46 45.3559 12.316ZM59.6991 29.56C59.4471 23.944 59.4111 16.96 59.6271 12.856C60.9231 11.812 62.7231 10.696 64.6311 9.724C63.0111 8.464 60.8151 6.88 57.8991 4.792C58.7631 3.748 60.3831 2.236 61.6431 1.408C66.5751 4.756 70.7151 7.996 73.2711 10.84C73.6671 15.736 73.6311 23.332 73.1991 27.4C71.1831 28.876 68.0151 30.82 66.0351 31.648C63.7311 31.072 61.4271 30.316 59.6991 29.56ZM64.1631 12.784C64.0191 14.944 63.9831 22.144 64.2351 25.384C64.3071 26.536 64.7391 26.896 68.8431 28.12C68.9511 23.98 68.9871 17.464 68.7711 14.656C68.6991 13.612 68.4831 13.18 67.7631 12.388C67.3671 11.956 66.7551 11.416 65.8911 10.696C64.5231 11.56 64.2351 12.028 64.1631 12.784ZM83.9639 31.612C81.9119 31.108 79.6079 30.388 77.6279 29.524C77.4119 24.196 77.3759 18.58 77.5919 13.252C79.6439 11.704 82.4519 9.94 84.6119 8.788C86.9879 9.292 89.3999 10.192 91.2359 11.308C91.5239 16.096 91.5599 22.108 91.3439 27.04C89.6159 28.48 86.4119 30.46 83.9639 31.612ZM82.1279 12.568C82.0199 16.6 82.0559 20.74 82.1639 24.808C82.1999 26.248 82.3799 26.536 83.4959 26.968C84.4319 27.328 85.5839 27.688 86.8079 28.012C86.9519 24.052 86.8799 19.624 86.6999 15.844C86.6639 14.836 86.4839 14.404 85.4039 13.864C84.3959 13.36 83.3519 12.964 82.1279 12.568ZM111.47 31.576C109.31 31.324 106.574 30.424 104.99 29.164C103.73 30.136 102.29 31.072 101.318 31.504C99.4816 31.252 97.0696 30.172 95.7376 28.876C95.9536 24.16 96.0616 17.284 96.0616 14.584C95.5216 13.828 94.2616 12.604 93.4696 12.1C94.7296 10.876 96.4216 9.724 98.0776 8.896C99.0496 9.472 100.202 10.444 100.814 11.308C100.67 15.016 100.454 24.268 100.454 25.42C100.454 26.428 103.694 28.048 105.278 28.048C105.278 23.584 105.278 19.048 105.206 14.584C104.666 13.828 103.406 12.604 102.65 12.1C103.91 10.876 105.602 9.724 107.258 8.896C108.23 9.472 109.382 10.444 109.994 11.308C109.922 16.06 109.886 20.812 109.886 25.492C109.886 26.428 112.694 27.58 114.35 27.724C114.638 26.32 114.746 24.916 114.746 23.512C114.746 18.94 113.954 15.088 112.514 11.776C113.846 10.696 115.682 9.544 117.194 8.896C118.418 11.776 119.03 15.232 119.03 18.184C119.03 24.196 117.014 28.696 111.47 31.576ZM146.238 11.992C149.01 17.968 149.01 24.232 143.43 29.056C142.314 30.028 141.09 30.892 139.758 31.612C136.302 29.488 131.946 27.436 128.598 26.536C129.642 25.456 131.406 24.088 132.99 23.116C136.158 24.052 139.758 25.924 142.494 27.832C143.466 24.196 143.394 20.38 142.278 17.248C141.882 16.312 141.702 16.168 140.694 16.312C137.67 16.672 134.358 17.248 131.19 17.896C128.598 12.604 129.354 7.276 134.538 2.776C135.654 1.804 136.878 0.939999 138.21 0.219999C140.946 1.588 144.186 2.812 147.174 3.64C145.77 4.936 144.33 6.052 142.782 7.096C140.478 6.556 137.814 5.584 135.294 4.396C133.854 7.06 134.034 10.624 135.366 13.504C135.834 14.368 136.05 14.476 137.022 14.296C139.614 13.792 142.854 13.036 146.238 11.992ZM159.296 37.12C156.2 36.904 151.808 36.22 149.36 35.536C150.368 34.168 151.448 32.8 152.6 31.54C155.48 32.332 158.36 32.98 161.24 33.484C161.384 31.792 161.492 29.776 161.528 27.616C160.232 28.588 158.9 29.488 157.748 30.172C155.876 29.704 153.824 28.984 152.024 28.156C152.204 23.476 152.312 17.14 152.312 14.584C151.772 13.828 150.512 12.604 149.72 12.1C150.98 10.876 152.672 9.724 154.328 8.896C155.3 9.472 156.452 10.444 157.064 11.308C156.848 15.016 156.704 20.524 156.704 23.476C156.704 24.916 156.92 25.204 158.036 25.636C159.044 26.032 160.232 26.428 161.528 26.752C161.6 21.46 161.384 15.412 160.916 10.624C162.356 9.94 164.264 9.256 165.884 8.824C166.388 16.348 166.388 25.672 165.704 32.692C164.12 34.06 161.276 36.004 159.296 37.12ZM182.54 31.612C181.784 31.144 180.416 30.1 179.66 29.272C179.876 26.068 180.056 19.696 180.056 15.016C180.056 14.044 176.996 12.82 175.376 12.748C175.376 18.436 175.412 24.124 175.556 29.812C174.116 30.496 172.208 31.18 170.588 31.612C170.732 26.068 170.768 20.488 170.768 14.944C170.264 14.08 168.968 12.712 168.176 12.1C169.436 10.876 171.128 9.724 172.784 8.896C173.72 9.508 174.656 10.588 175.232 11.524C176.564 10.444 178.148 9.4 179.192 8.932C181.028 9.148 183.404 10.048 184.736 11.164C184.52 16.204 184.412 22.396 184.412 25.348C184.412 26.68 184.628 26.896 186.86 28.408C185.564 29.632 184.052 30.748 182.54 31.612ZM189.25 29.56C188.998 23.944 188.962 16.96 189.178 12.856C190.474 11.812 192.274 10.696 194.182 9.724C192.562 8.464 190.366 6.88 187.45 4.792C188.314 3.748 189.934 2.236 191.194 1.408C196.126 4.756 200.266 7.996 202.822 10.84C203.218 15.736 203.182 23.332 202.75 27.4C200.734 28.876 197.566 30.82 195.586 31.648C193.282 31.072 190.978 30.316 189.25 29.56ZM193.714 12.784C193.57 14.944 193.534 22.144 193.786 25.384C193.858 26.536 194.29 26.896 198.394 28.12C198.502 23.98 198.538 17.464 198.322 14.656C198.25 13.612 198.034 13.18 197.314 12.388C196.918 11.956 196.306 11.416 195.442 10.696C194.074 11.56 193.786 12.028 193.714 12.784ZM207.143 29.272C207.503 25.96 207.719 19.408 207.719 14.584C207.179 13.828 205.919 12.604 205.127 12.1C206.387 10.876 208.079 9.724 209.735 8.896C210.707 9.472 211.859 10.444 212.471 11.308C212.183 14.872 212.111 19.876 212.111 25.348C212.111 26.536 212.435 26.968 214.559 28.408C213.227 29.596 211.607 30.712 210.059 31.54C209.339 31.072 208.043 30.064 207.143 29.272ZM207.791 6.448L209.411 1.048C210.599 1.3 212.471 1.948 213.695 2.524L210.815 7.528C209.807 7.312 208.691 6.916 207.791 6.448ZM223.255 31.432C221.275 30.712 219.115 29.632 216.955 28.264C216.559 21.856 216.559 16.78 216.883 13.036C218.935 11.452 221.167 9.94 223.363 8.752C225.199 9.328 227.071 10.264 228.187 11.2C227.359 12.64 225.991 14.44 224.983 15.412C223.903 14.548 222.643 13.756 221.347 13.072C221.203 16.06 221.239 19.84 221.419 23.404C221.491 25.096 221.599 25.276 223.219 26.14C224.227 26.68 225.919 27.436 227.899 28.228C226.423 29.452 224.911 30.496 223.255 31.432ZM228.904 21.928C229.948 21.244 231.244 20.524 232.576 19.84C231.244 18.364 230.02 16.204 229.3 14.224C230.884 12.496 234.304 9.94 236.608 8.752C239.02 9.076 241.792 10.228 243.448 11.524C243.124 15.088 242.836 21.388 243.34 25.528C243.448 26.536 243.592 26.752 244.42 27.364C244.96 27.688 245.572 28.012 246.04 28.228C244.564 29.452 243.052 30.496 241.432 31.432C240.604 31.108 239.488 30.46 238.876 29.884C238.732 29.056 238.624 28.048 238.552 27.04C237.112 28.768 234.988 30.316 231.82 31.432C230.308 28.912 229.156 24.844 228.904 21.928ZM233.512 12.316C233.944 14.44 235.024 16.78 236.608 19.084C234.304 20.56 233.944 20.884 233.944 21.424C233.944 22.756 234.736 25.852 235.96 27.796C236.86 26.896 237.832 25.456 238.444 23.908C238.444 19.66 238.624 15.988 238.624 14.944C238.624 13.828 235.744 12.46 233.512 12.316ZM257.575 9.4C257.287 10.588 256.999 12.172 256.855 13.288H253.327V15.412C253.327 18.94 253.363 22.036 253.399 24.628C253.435 26.104 253.795 26.464 257.539 28.408C256.171 29.632 254.551 30.748 252.931 31.612C250.879 30.64 249.223 29.56 248.287 28.66C248.611 25.816 248.683 21.82 248.683 16.384V13.288H245.839C246.667 11.956 247.603 10.732 248.647 9.688L248.539 5.584C250.195 4.54 251.887 3.712 253.795 2.956C253.579 4.9 253.471 6.844 253.399 9.4H257.575ZM267.006 31.612C264.774 30.892 262.182 29.704 259.986 28.408C259.59 21.928 259.59 16.852 259.914 13.036C262.398 11.452 265.134 9.94 267.834 8.752C269.526 10.588 271.254 13.576 272.298 16.6C270.714 18.256 267.294 20.704 264.414 22.432L264.45 23.584C264.522 25.276 264.63 25.492 266.25 26.32C267.366 26.896 269.67 27.76 271.65 28.408C270.174 29.632 268.662 30.712 267.006 31.612ZM264.306 19.84C267.042 18.94 267.618 18.616 267.618 18.256C267.618 17.608 266.142 14.548 264.414 12.352C264.306 14.476 264.27 17.104 264.306 19.84Z" fill="white"/>
</svg>
